<svg version="1.1" xmlns="http://www.w3.org/2000/svg" style="display: block;" viewBox="0 0 2048 2048" width="1024" height="1024" preserveAspectRatio="none">
<path transform="translate(0,0)" fill="rgb(246,199,42)" d="M 170.863 589.07 L 1524.17 589.062 C 1526.1 599.753 1528.87 607.744 1538.59 614.383 C 1545.03 618.753 1552.93 620.385 1560.58 618.92 C 1577.03 615.749 1582.69 603.749 1586.27 589.187 C 1681.05 588.19 1782.24 588.115 1877.01 589.19 L 1876.72 736.536 C 1876.69 760.194 1875.73 792.8 1876.96 815.72 C 1876.82 953.912 1878.35 1094.8 1876.73 1232.71 C 1875.96 1308.09 1876.02 1383.48 1876.91 1458.86 L 1693.85 1458.86 C 1658.44 1458.7 1621.19 1458.06 1585.93 1459.04 C 1583.47 1444.87 1577.66 1433.04 1562.54 1429.24 C 1554.45 1427.23 1545.89 1428.66 1538.89 1433.19 C 1528.57 1439.94 1526.31 1447.86 1524.1 1458.88 C 1458.17 1456.98 1382.76 1458.63 1316.23 1458.62 L 886.668 1458.94 L 409.629 1458.62 C 331.606 1458.62 248.703 1457.14 171.007 1458.96 C 169.296 1423.92 171.075 1380.66 170.738 1345 C 169.871 1253.38 172.377 1160.01 170.627 1068.53 C 170.437 1034.06 170.463 999.59 170.705 965.121 C 170.743 956.985 170.821 949.076 170.451 940.935 C 171.75 898.914 170.571 851.588 170.779 808.976 L 170.863 589.07 z M 171.007 1458.96 C 248.703 1457.14 331.606 1458.62 409.629 1458.62 L 886.668 1458.94 L 1316.23 1458.62 C 1382.76 1458.63 1458.17 1456.98 1524.1 1458.88 C 1526.31 1447.86 1528.57 1439.94 1538.89 1433.19 C 1545.89 1428.66 1554.45 1427.23 1562.54 1429.24 C 1577.66 1433.04 1583.47 1444.87 1585.93 1459.04 C 1621.19 1458.06 1658.44 1458.7 1693.85 1458.86 L 1876.91 1458.86 C 1876.02 1383.48 1875.96 1308.09 1876.73 1232.71 C 1840.54 1232.53 1561.99 1233.83 1555.87 1231.23 C 1553.88 1227.56 1554.67 1227.66 1554.93 1222.7 C 1561.94 1222.65 1567.61 1216.97 1567.64 1209.96 C 1567.67 1202.95 1562.05 1197.23 1555.04 1197.12 C 1555.16 1190.41 1555.15 1183.64 1555.19 1176.93 C 1559.93 1175.32 1564.17 1173.17 1566.39 1168.31 C 1567.78 1165.29 1567.82 1161.83 1566.5 1158.79 C 1564.45 1154.07 1560 1151.73 1555.51 1149.93 C 1554.86 1145.45 1555.04 1135.17 1555.02 1130.25 C 1561.95 1130.13 1567.57 1124.58 1567.79 1117.64 C 1568 1110.7 1562.73 1104.82 1555.81 1104.27 C 1554.95 1095.9 1554.84 1092.18 1555.15 1083.76 C 1551.37 1083.84 1547.74 1082.24 1545.25 1079.38 C 1542.76 1076.53 1541.66 1072.72 1542.24 1068.98 L 170.627 1068.53 C 172.377 1160.01 169.871 1253.38 170.738 1345 C 171.075 1380.66 169.296 1423.92 171.007 1458.96 z"/>
<path transform="translate(0,0)" fill="rgb(27,89,156)" d="M 170.627 1068.53 L 1542.24 1068.98 C 1541.66 1072.72 1542.76 1076.53 1545.25 1079.38 C 1547.74 1082.24 1551.37 1083.84 1555.15 1083.76 C 1554.84 1092.18 1554.95 1095.9 1555.81 1104.27 C 1562.73 1104.82 1568 1110.7 1567.79 1117.64 C 1567.57 1124.58 1561.95 1130.13 1555.02 1130.25 C 1555.04 1135.17 1554.86 1145.45 1555.51 1149.93 C 1560 1151.73 1564.45 1154.07 1566.5 1158.79 C 1567.82 1161.83 1567.78 1165.29 1566.39 1168.31 C 1564.17 1173.17 1559.93 1175.32 1555.19 1176.93 C 1555.15 1183.64 1555.16 1190.41 1555.04 1197.12 C 1562.05 1197.23 1567.67 1202.95 1567.64 1209.96 C 1567.61 1216.97 1561.94 1222.65 1554.93 1222.7 C 1554.67 1227.66 1553.88 1227.56 1555.87 1231.23 C 1561.99 1233.83 1840.54 1232.53 1876.73 1232.71 C 1875.96 1308.09 1876.02 1383.48 1876.91 1458.86 L 1693.85 1458.86 C 1658.44 1458.7 1621.19 1458.06 1585.93 1459.04 C 1583.47 1444.87 1577.66 1433.04 1562.54 1429.24 C 1554.45 1427.23 1545.89 1428.66 1538.89 1433.19 C 1528.57 1439.94 1526.31 1447.86 1524.1 1458.88 C 1458.17 1456.98 1382.76 1458.63 1316.23 1458.62 L 886.668 1458.94 L 409.629 1458.62 C 331.606 1458.62 248.703 1457.14 171.007 1458.96 C 169.296 1423.92 171.075 1380.66 170.738 1345 C 169.871 1253.38 172.377 1160.01 170.627 1068.53 z M 1030.86 1397.3 L 1492.97 1397.18 L 1492.99 1241.04 L 1030.94 1241.02 L 1030.86 1397.3 z M 1606.14 1382.15 L 1838.18 1382.06 L 1838.27 1267.66 L 1686.57 1267.74 C 1661.31 1267.76 1630.76 1266.91 1605.91 1267.65 L 1606.14 1382.15 z"/>
<path transform="translate(0,0)" fill="rgb(253,254,254)" d="M 1555.81 1104.27 C 1562.73 1104.82 1568 1110.7 1567.79 1117.64 C 1567.57 1124.58 1561.95 1130.13 1555.02 1130.25 C 1550.22 1130.34 1545.76 1127.78 1543.42 1123.59 C 1541.08 1119.4 1541.24 1114.26 1543.83 1110.22 C 1546.42 1106.18 1551.02 1103.89 1555.81 1104.27 z"/>
<path transform="translate(0,0)" fill="rgb(253,254,254)" d="M 1555.04 1197.12 C 1562.05 1197.23 1567.67 1202.95 1567.64 1209.96 C 1567.61 1216.97 1561.94 1222.65 1554.93 1222.7 C 1550.33 1222.73 1546.07 1220.29 1543.77 1216.3 C 1541.47 1212.31 1541.49 1207.4 1543.82 1203.43 C 1546.15 1199.46 1550.44 1197.05 1555.04 1197.12 z"/>
<path transform="translate(0,0)" fill="rgb(253,254,254)" d="M 1555.19 1176.93 C 1538 1173.68 1536.99 1155.42 1555.51 1149.93 C 1560 1151.73 1564.45 1154.07 1566.5 1158.79 C 1567.82 1161.83 1567.78 1165.29 1566.39 1168.31 C 1564.17 1173.17 1559.93 1175.32 1555.19 1176.93 z"/>
<path transform="translate(0,0)" fill="rgb(253,254,254)" d="M 1030.94 1241.02 L 1492.99 1241.04 L 1492.97 1397.18 L 1030.86 1397.3 L 1030.94 1241.02 z M 1146.7 1383.74 L 1146.76 1293.83 C 1146.75 1287.15 1147.1 1260.69 1146.38 1256.41 C 1144.06 1255.45 1144.09 1255.41 1141.63 1254.8 C 1140.86 1283.3 1141.83 1312.93 1141.41 1341.58 C 1141.33 1347.34 1141.08 1378.9 1141.64 1382.31 C 1143.92 1383.17 1144.32 1383.42 1146.7 1383.74 z"/>
<path transform="translate(0,0)" fill="rgb(24,23,23)" d="M 1226.27 1255.79 L 1238.9 1255.54 L 1238.94 1383.22 L 1226.31 1383.26 C 1225.8 1341.24 1226.35 1297.93 1226.27 1255.79 z"/>
<path transform="translate(0,0)" fill="rgb(24,23,23)" d="M 1295.65 1255.46 L 1308.1 1255.43 C 1308.6 1297.76 1308.22 1340.87 1308.23 1383.26 L 1295.95 1383.19 C 1294.73 1343.12 1295.43 1295.93 1295.65 1255.46 z"/>
<path transform="translate(0,0)" fill="rgb(24,23,23)" d="M 1313.07 1255.39 L 1325.07 1255.4 L 1325.06 1383.2 L 1313 1383.23 L 1313.07 1255.39 z"/>
<path transform="translate(0,0)" fill="rgb(24,23,23)" d="M 1407.2 1255.38 L 1419.16 1255.46 L 1419.12 1383.27 L 1406.96 1383.28 C 1407.23 1340.7 1406.63 1297.91 1407.2 1255.38 z"/>
<path transform="translate(0,0)" fill="rgb(24,23,23)" d="M 1103.2 1255.24 L 1115.12 1255.47 L 1115.21 1383.3 L 1103.19 1383.32 L 1103.2 1255.24 z"/>
<path transform="translate(0,0)" fill="rgb(24,23,23)" d="M 1166.96 1255.24 L 1178.73 1255.3 C 1179.35 1297.44 1178.79 1341 1178.68 1383.25 C 1173.99 1383.4 1172.01 1383.74 1167.58 1382.57 C 1165.24 1375.89 1166.79 1269.86 1166.96 1255.24 z"/>
<path transform="translate(0,0)" fill="rgb(24,23,23)" d="M 1390.94 1255.14 L 1402.95 1255.37 L 1402.89 1383.21 C 1399.53 1383.32 1393.55 1383.91 1391.24 1381.84 C 1390.23 1369.08 1390.8 1349.08 1390.8 1335.84 L 1390.94 1255.14 z"/>
<path transform="translate(0,0)" fill="rgb(24,23,23)" d="M 1209.72 1255.52 L 1221.4 1255.67 L 1221.6 1383.13 C 1217.99 1383.33 1212.79 1384.03 1210.18 1381.76 C 1208.98 1371.69 1209.69 1349.62 1209.7 1338.35 L 1209.72 1255.52 z"/>
<path transform="translate(0,0)" fill="rgb(24,23,23)" d="M 1454.21 1255.39 L 1465.89 1255.42 L 1465.9 1383.17 C 1462.17 1383.28 1457.96 1383.84 1454.69 1382.31 C 1453.46 1374.82 1454.02 1349.29 1454.02 1340.24 L 1454.21 1255.39 z"/>
<path transform="translate(0,0)" fill="rgb(24,23,23)" d="M 1253.88 1255.6 L 1265.75 1255.59 L 1265.74 1383.08 C 1262.32 1383.18 1257.26 1383.62 1254.42 1382.15 C 1253.34 1370.2 1253.95 1348.96 1253.97 1336.08 L 1253.88 1255.6 z"/>
<path transform="translate(0,0)" fill="rgb(24,23,23)" d="M 1047.25 1255.36 L 1059.06 1255.4 L 1059.02 1383.23 C 1055.51 1383.32 1050.47 1383.8 1047.6 1382.13 C 1046.49 1372.24 1047.12 1349.28 1047.12 1338.62 L 1047.25 1255.36 z"/>
<path transform="translate(0,0)" fill="rgb(24,23,23)" d="M 1120.06 1255.62 C 1123.49 1255.57 1128.48 1255.08 1131.11 1256.91 C 1132.29 1266.41 1131.67 1290.26 1131.67 1300.58 L 1131.66 1383.15 C 1127.99 1383.25 1123.88 1383.77 1120.7 1382.22 C 1119.65 1376.23 1120.1 1349.85 1120.1 1342.4 L 1120.06 1255.62 z"/>
<path transform="translate(0,0)" fill="rgb(24,23,23)" d="M 1354.27 1255.33 L 1356.62 1255.92 C 1357.32 1267.3 1357.64 1380.18 1355.98 1382.98 L 1348.94 1384 L 1347.28 1383.11 C 1345.18 1379.46 1345.13 1268.75 1345.99 1256.55 C 1348.69 1254.97 1350.79 1255.44 1354.27 1255.33 z"/>
<path transform="translate(0,0)" fill="rgb(24,23,23)" fill-opacity="0.988235" d="M 1141.63 1254.8 C 1144.09 1255.41 1144.06 1255.45 1146.38 1256.41 C 1147.1 1260.69 1146.75 1287.15 1146.76 1293.83 L 1146.7 1383.74 C 1144.32 1383.42 1143.92 1383.17 1141.64 1382.31 C 1141.08 1378.9 1141.33 1347.34 1141.41 1341.58 C 1141.83 1312.93 1140.86 1283.3 1141.63 1254.8 z"/>
<path transform="translate(0,0)" fill="rgb(24,23,23)" d="M 1470.69 1254.4 L 1474.44 1255.31 C 1474.87 1255.76 1475.3 1256.21 1475.73 1256.66 C 1476.32 1283.06 1475.97 1362.12 1475.96 1383.84 C 1473.33 1383.42 1473.4 1383.43 1471 1382.28 C 1470.01 1373.91 1470.64 1349.53 1470.65 1339.88 L 1470.69 1254.4 z"/>
<path transform="translate(0,0)" fill="rgb(24,23,23)" d="M 1063.59 1254.65 C 1065.82 1255.13 1066.27 1255.29 1068.4 1256 C 1070.64 1262.94 1069.05 1369.25 1069.09 1383.94 C 1066.39 1383.44 1066.48 1383.49 1064.06 1382.21 C 1063.13 1369.67 1063.75 1349.19 1063.77 1336.07 C 1063.86 1308.93 1063.8 1281.79 1063.59 1254.65 z"/>
<path transform="translate(0,0)" fill="rgb(24,23,23)" d="M 1183.86 1254.93 C 1186.21 1255.36 1186.44 1255.49 1188.66 1256.42 C 1189.46 1260.02 1189.11 1287.97 1189.1 1293.25 L 1189 1383.8 C 1187.36 1383.41 1185.91 1382.98 1184.29 1382.51 C 1182.57 1377.47 1183.87 1267.44 1183.86 1254.93 z"/>
<path transform="translate(0,0)" fill="rgb(24,23,23)" d="M 1079.71 1254.35 C 1082.08 1255.1 1082.1 1254.92 1083.78 1256.69 C 1084.22 1263.63 1084.34 1270.87 1084.19 1277.82 C 1083.44 1313.03 1085.3 1349.12 1083.86 1384.24 C 1081.17 1383.49 1081.22 1383.66 1079.13 1381.87 C 1077.68 1359.81 1079.68 1330.25 1078.91 1307.46 C 1078.64 1299.46 1078.58 1260.59 1079.71 1254.35 z"/>
<path transform="translate(0,0)" fill="rgb(24,23,23)" d="M 1366.23 1255.08 C 1368.82 1255.35 1368.85 1255.13 1370.87 1256.7 C 1371.91 1267.81 1371.3 1290.13 1371.28 1301.89 L 1371.18 1383.96 C 1368.59 1383.41 1368.15 1383.64 1366.33 1381.86 C 1365.37 1368.79 1365.95 1349.71 1365.99 1336.29 L 1366.23 1255.08 z"/>
<path transform="translate(0,0)" fill="rgb(24,23,23)" d="M 1286.03 1255.04 L 1290.4 1256.05 C 1291.67 1258.63 1291.27 1371.58 1291.33 1384.12 L 1286.61 1382.61 C 1285.5 1378.37 1285.94 1350.75 1285.95 1344.8 L 1286.03 1255.04 z"/>
<path transform="translate(0,0)" fill="rgb(24,23,23)" d="M 1244.09 1255.02 C 1247.7 1255.6 1246.53 1254.77 1248.91 1256.7 C 1249.85 1269.89 1249.26 1288.71 1249.25 1302.56 L 1249.1 1383.95 L 1245.48 1382.95 C 1243.19 1379.94 1243.93 1364.41 1243.94 1359.89 C 1243.96 1324.93 1244.03 1289.98 1244.09 1255.02 z"/>
<path transform="translate(0,0)" fill="rgb(24,23,23)" d="M 1330.4 1254.23 L 1334.43 1255.99 C 1336.31 1261.61 1335.44 1371.99 1334.83 1384.36 C 1332.8 1383.66 1332.37 1383.42 1330.45 1382.48 C 1329.42 1376.13 1329.95 1339.69 1329.94 1330.67 L 1329.87 1282.12 C 1329.87 1274.19 1329.49 1261.72 1330.4 1254.23 z"/>
<path transform="translate(0,0)" fill="rgb(24,23,23)" d="M 1429.38 1254.21 C 1431.91 1255.18 1431.33 1254.94 1433.6 1256.43 C 1434.74 1267.91 1434.04 1292.04 1433.99 1304.72 C 1433.88 1330.79 1434.49 1358.29 1433.76 1384.24 C 1431.21 1383.59 1431.23 1383.71 1429.08 1382.25 C 1427.96 1370.72 1428.82 1334.79 1428.84 1321.71 C 1428.87 1307.32 1427.75 1266.61 1429.38 1254.21 z"/>
<path transform="translate(0,0)" fill="rgb(24,23,23)" d="M 1194.07 1255.19 C 1196.09 1255.63 1196.63 1255.83 1198.57 1256.5 C 1199.66 1262.51 1199.17 1289.2 1199.16 1296.7 L 1199.04 1383.86 L 1194.66 1382.55 C 1192.61 1377.26 1194.04 1268.74 1194.07 1255.19 z"/>
<path transform="translate(0,0)" fill="rgb(24,23,23)" d="M 1376.08 1255.02 C 1379.22 1255.48 1378.17 1254.94 1380.58 1256.69 C 1381.45 1271.83 1381.01 1289.84 1380.99 1305.28 L 1380.97 1383.84 C 1377.5 1383.18 1378.45 1383.9 1376.12 1381.89 C 1375.28 1367.61 1375.77 1350.32 1375.8 1335.67 L 1376.08 1255.02 z"/>
<path transform="translate(0,0)" fill="rgb(24,23,23)" d="M 1278.11 1254.71 C 1278.68 1255.01 1279.87 1256.05 1280.43 1256.51 C 1282.02 1267.34 1282.25 1378.33 1279.63 1384.43 C 1277.99 1383.48 1276.11 1383.01 1276.11 1380.94 C 1276.18 1339.73 1275.54 1298.25 1276.57 1257.07 C 1277.09 1256.28 1277.6 1255.5 1278.11 1254.71 z"/>
<path transform="translate(0,0)" fill="rgb(24,23,23)" d="M 1151.67 1255.25 C 1154.04 1255.43 1153.94 1255.29 1155.81 1256.7 C 1156.95 1274.52 1156.21 1299.91 1156.18 1318.17 C 1156.15 1338.58 1156.87 1364.21 1155.79 1384.28 C 1153.28 1383.48 1153.21 1383.66 1151.37 1381.86 C 1150.45 1365.2 1151.17 1344.08 1151.19 1327.13 C 1151.21 1303.56 1150.89 1278.72 1151.67 1255.25 z"/>
<path transform="translate(0,0)" fill="rgb(24,23,23)" d="M 1089.73 1254.26 C 1092.18 1255.18 1091.43 1254.84 1093.56 1256.41 C 1094.5 1272.47 1093.95 1294.27 1093.92 1310.64 C 1093.88 1334.78 1094.39 1360.22 1093.76 1384.23 L 1089.99 1382.92 C 1088.59 1380.45 1088.42 1261.92 1089.73 1254.26 z"/>
<path transform="translate(0,0)" fill="rgb(24,23,23)" d="M 1442.36 1254.6 C 1442.47 1254.89 1443.09 1256.47 1443.09 1256.72 C 1443.9 1298.29 1443.84 1340.3 1443.31 1381.89 C 1442.73 1382.73 1442.14 1383.57 1441.55 1384.41 C 1439.74 1382.89 1440.3 1383.46 1439.01 1381.43 C 1438.32 1371.04 1437.68 1262.61 1439.31 1256.3 L 1442.36 1254.6 z"/>
<path transform="translate(0,0)" fill="rgb(253,254,254)" d="M 1605.91 1267.65 C 1630.76 1266.91 1661.31 1267.76 1686.57 1267.74 L 1838.27 1267.66 L 1838.18 1382.06 L 1606.14 1382.15 L 1605.91 1267.65 z M 1623.5 1372.75 C 1623.8 1361.97 1624.96 1281.27 1622.41 1277.34 L 1618.69 1276.17 C 1618.23 1303.89 1617.03 1344 1618.81 1370.84 C 1620.86 1372.93 1619.84 1372.01 1623.5 1372.75 z M 1789.34 1277.95 C 1785.09 1277.12 1786.54 1276.52 1783.96 1278.17 C 1782.83 1286.14 1783.08 1369.4 1784.58 1371.69 C 1787.46 1371.84 1786.69 1372.15 1789.19 1371.28 C 1789.49 1340.2 1788.82 1308.92 1789.34 1277.95 z M 1680.96 1278.17 L 1678.01 1277.21 C 1675.34 1279.68 1675.29 1368.37 1677.54 1371.75 C 1678.68 1371.57 1679.34 1371.59 1680.33 1371.12 C 1681.47 1366.11 1681.15 1346.19 1681.14 1339.78 L 1680.96 1278.17 z"/>
<path transform="translate(0,0)" fill="rgb(245,252,252)" d="M 1735.74 1277.29 L 1737.84 1276.64 L 1743.4 1277.82 L 1746.06 1277.01 L 1751.61 1277.7 L 1755.28 1276.19 C 1759.58 1283.32 1756.03 1356.54 1756.77 1369.94 C 1756.81 1370.6 1756.15 1371.83 1755.82 1372.5 C 1746.39 1373.16 1736.96 1373.56 1727.51 1373.71 C 1727.45 1370.21 1727.67 1366.5 1727.8 1362.98 C 1728.81 1350.75 1726.06 1280.15 1729.78 1277.02 L 1732.68 1277.53 L 1735.74 1277.29 z"/>
<path transform="translate(0,0)" fill="rgb(24,23,23)" d="M 1746.06 1277.01 L 1751.61 1277.7 L 1751.6 1340.85 C 1751.61 1347.49 1753.51 1368.44 1749.15 1372.29 L 1746.81 1371.52 C 1745.56 1368.98 1746.07 1286.87 1746.06 1277.01 z"/>
<path transform="translate(0,0)" fill="rgb(24,23,23)" d="M 1737.84 1276.64 L 1743.4 1277.82 C 1742.55 1299.85 1743.57 1322.92 1743.03 1345.02 C 1742.84 1352.6 1743.9 1365.1 1742.32 1371.66 L 1739.78 1372.73 L 1741.98 1372.4 L 1742.25 1371.84 L 1739.41 1372.27 C 1736.72 1367.85 1737.95 1344.27 1737.97 1337.96 L 1737.84 1276.64 z"/>
<path transform="translate(0,0)" fill="rgb(24,23,23)" d="M 1755.28 1276.19 C 1759.58 1283.32 1756.03 1356.54 1756.77 1369.94 C 1756.81 1370.6 1756.15 1371.83 1755.82 1372.5 C 1753.64 1369.74 1753.47 1282.3 1755.28 1276.19 z"/>
<path transform="translate(0,0)" fill="rgb(24,23,23)" d="M 1732.68 1277.53 L 1735.74 1277.29 C 1734.33 1295.21 1735.7 1317.51 1735.31 1335.79 C 1735.06 1348.05 1736.73 1358.25 1733.88 1370.83 C 1732.04 1368.08 1732.71 1287.68 1732.68 1277.53 z"/>
<path transform="translate(0,0)" fill="rgb(24,23,23)" d="M 1727.8 1362.98 C 1728.81 1350.75 1726.06 1280.15 1729.78 1277.02 C 1730.28 1286.46 1730.84 1368.07 1729.13 1371.49 C 1727.59 1367.7 1727.77 1367.19 1727.8 1362.98 z"/>
<path transform="translate(0,0)" fill="rgb(24,23,23)" d="M 1649.96 1277.11 L 1653.66 1276.07 C 1659.75 1277.98 1660.05 1280.05 1659.13 1286.98 C 1657.5 1299.31 1661.61 1364.1 1658.33 1371.49 C 1656.76 1372.06 1655.42 1372.58 1653.81 1373.04 L 1650.04 1371.98 C 1648.52 1371.96 1647.72 1371.8 1646.22 1371.6 C 1645.47 1369.99 1645.35 1370.25 1645.35 1368.67 C 1645.39 1338.66 1644.94 1308.65 1645.28 1278.65 C 1645.7 1278.17 1646.11 1277.69 1646.53 1277.21 L 1649.96 1277.11 z"/>
<path transform="translate(0,0)" fill="rgb(24,23,23)" d="M 1650.04 1371.98 C 1648.52 1371.96 1647.72 1371.8 1646.22 1371.6 C 1645.47 1369.99 1645.35 1370.25 1645.35 1368.67 C 1645.39 1338.66 1644.94 1308.65 1645.28 1278.65 C 1645.7 1278.17 1646.11 1277.69 1646.53 1277.21 L 1649.96 1277.11 C 1650.8 1281.74 1651.04 1367.51 1650.04 1371.98 z"/>
<path transform="translate(0,0)" fill="rgb(245,252,252)" d="M 1649.96 1277.11 L 1653.66 1276.07 C 1652.39 1291.1 1653.31 1313.95 1653.19 1329.53 C 1653.12 1339.86 1652.71 1363.72 1653.81 1373.04 L 1650.04 1371.98 C 1651.04 1367.51 1650.8 1281.74 1649.96 1277.11 z"/>
<path transform="translate(0,0)" fill="rgb(24,23,23)" d="M 1714.29 1370.66 C 1713.12 1370.56 1713.74 1370.78 1712.65 1369.58 C 1712.77 1360.05 1711.85 1280.79 1712.91 1277.99 L 1715.07 1277.86 L 1717.78 1277.83 C 1721.71 1277.27 1720.54 1276.64 1722.8 1278.17 C 1723.73 1286.37 1723.76 1368.7 1722.55 1371.4 C 1720.32 1371.94 1720.32 1372 1718.05 1371.89 L 1714.29 1370.66 z"/>
<path transform="translate(0,0)" fill="rgb(194,193,199)" d="M 1714.29 1370.66 C 1713.12 1370.56 1713.74 1370.78 1712.65 1369.58 C 1712.77 1360.05 1711.85 1280.79 1712.91 1277.99 L 1715.07 1277.86 L 1717.78 1277.83 C 1717.92 1308.15 1717.15 1342.01 1718.05 1371.89 L 1714.29 1370.66 z"/>
<path transform="translate(0,0)" fill="rgb(24,23,23)" d="M 1714.29 1370.66 C 1713.12 1370.56 1713.74 1370.78 1712.65 1369.58 C 1712.77 1360.05 1711.85 1280.79 1712.91 1277.99 L 1715.07 1277.86 C 1715.1 1289.84 1716.11 1366.43 1714.29 1370.66 z"/>
<path transform="translate(0,0)" fill="rgb(24,23,23)" d="M 1664.87 1275.95 L 1668.64 1277.5 L 1670.45 1277.78 C 1671.95 1281.71 1671.4 1369.9 1669.49 1372.9 L 1664.72 1371.47 C 1661.3 1366.31 1664.47 1292.24 1663.46 1280.02 C 1663.35 1278.77 1664.22 1277.04 1664.87 1275.95 z"/>
<path transform="translate(0,0)" fill="rgb(24,23,23)" d="M 1668.64 1277.5 L 1670.45 1277.78 C 1671.95 1281.71 1671.4 1369.9 1669.49 1372.9 C 1667.18 1366.46 1667.64 1288.15 1668.64 1277.5 z"/>
<path transform="translate(0,0)" fill="rgb(245,252,252)" d="M 1664.87 1275.95 L 1668.64 1277.5 C 1667.64 1288.15 1667.18 1366.46 1669.49 1372.9 L 1664.72 1371.47 C 1666.53 1368.14 1667 1283.19 1664.87 1275.95 z"/>
<path transform="translate(0,0)" fill="rgb(245,252,252)" d="M 1803.33 1277.03 L 1808.39 1276.45 C 1810.49 1279.92 1809.54 1359.22 1809.76 1369.59 L 1808.76 1371.47 L 1807.81 1371.5 L 1803.29 1371.29 L 1802 1370.05 C 1802.03 1359.67 1800.93 1280.89 1803.33 1277.03 z"/>
<path transform="translate(0,0)" fill="rgb(24,23,23)" d="M 1808.39 1276.45 C 1810.49 1279.92 1809.54 1359.22 1809.76 1369.59 L 1808.76 1371.47 L 1807.81 1371.5 C 1806.15 1364.16 1806.34 1280.95 1808.39 1276.45 z"/>
<path transform="translate(0,0)" fill="rgb(24,23,23)" d="M 1803.33 1277.03 C 1804.92 1285 1805.04 1366.92 1803.29 1371.29 L 1802 1370.05 C 1802.03 1359.67 1800.93 1280.89 1803.33 1277.03 z"/>
<path transform="translate(0,0)" fill="rgb(24,23,23)" d="M 1635.13 1278.54 L 1639.2 1276.34 C 1643.57 1282.86 1639.74 1356.35 1640.94 1369.04 C 1641.01 1369.77 1640.44 1371.32 1640.16 1372.16 C 1638.13 1372.86 1636.38 1372.94 1634.23 1373.22 C 1633.13 1368.78 1633.12 1285.39 1633.83 1277.94 L 1635.13 1278.54 z"/>
<path transform="translate(0,0)" fill="rgb(24,23,23)" d="M 1634.23 1373.22 C 1633.13 1368.78 1633.12 1285.39 1633.83 1277.94 L 1635.13 1278.54 C 1637.04 1286.74 1636.74 1369.47 1634.23 1373.22 z"/>
<path transform="translate(0,0)" fill="rgb(245,252,252)" d="M 1635.13 1278.54 L 1639.2 1276.34 C 1637.59 1280.53 1637.19 1365.67 1638.68 1370.96 L 1640.16 1372.16 C 1638.13 1372.86 1636.38 1372.94 1634.23 1373.22 C 1636.74 1369.47 1637.04 1286.74 1635.13 1278.54 z"/>
<path transform="translate(0,0)" fill="rgb(24,23,23)" d="M 1792.12 1277.66 C 1796.51 1277.22 1795.01 1276.49 1797.56 1278.48 C 1798.3 1287.76 1798.54 1367.41 1796.49 1371.35 C 1794.44 1372.05 1793.82 1372.17 1791.71 1370.84 C 1792.38 1361.74 1792.03 1347.82 1792.04 1338.33 L 1792.12 1277.66 z"/>
<path transform="translate(0,0)" fill="rgb(24,23,23)" fill-opacity="0.988235" d="M 1789.19 1371.28 C 1786.69 1372.15 1787.46 1371.84 1784.58 1371.69 C 1783.08 1369.4 1782.83 1286.14 1783.96 1278.17 C 1786.54 1276.52 1785.09 1277.12 1789.34 1277.95 C 1788.82 1308.92 1789.49 1340.2 1789.19 1371.28 z"/>
<path transform="translate(0,0)" fill="rgb(24,23,23)" d="M 1814.35 1276.33 C 1816.92 1276.78 1816.89 1276.73 1819.21 1277.9 C 1821.42 1286.08 1820.04 1360.16 1819.61 1372.73 L 1815.99 1371.93 C 1815.52 1371.44 1815.06 1370.94 1814.59 1370.44 C 1813.79 1346.11 1814.01 1298.52 1814.35 1276.33 z"/>
<path transform="translate(0,0)" fill="rgb(24,23,23)" d="M 1704.77 1276.26 L 1708.46 1277.27 C 1711.68 1281.42 1710.11 1361.41 1709.67 1372.74 C 1707.66 1372.25 1707.11 1372.02 1705.18 1371.29 C 1703 1365.63 1704.54 1288.15 1704.77 1276.26 z"/>
<path transform="translate(0,0)" fill="rgb(24,23,23)" d="M 1762.21 1276.29 C 1764.92 1276.83 1765.24 1276.6 1767.3 1278.32 C 1768.97 1301.73 1767.51 1345.73 1767.46 1370.89 C 1765.43 1372.26 1764.61 1372.11 1762.64 1371.42 C 1760.23 1360.37 1761.76 1290.7 1762.21 1276.29 z"/>
<path transform="translate(0,0)" fill="rgb(24,23,23)" d="M 1696.74 1276.29 C 1700.43 1277.25 1699.15 1276.23 1701.45 1278.59 C 1702.21 1289.7 1703.13 1365.11 1700.74 1373.11 C 1699.79 1372.79 1697.31 1372.02 1697.25 1371.35 C 1695.53 1354.33 1696.41 1289.57 1696.74 1276.29 z"/>
<path transform="translate(0,0)" fill="rgb(24,23,23)" fill-opacity="0.988235" d="M 1618.69 1276.17 L 1622.41 1277.34 C 1624.96 1281.27 1623.8 1361.97 1623.5 1372.75 C 1619.84 1372.01 1620.86 1372.93 1618.81 1370.84 C 1617.03 1344 1618.23 1303.89 1618.69 1276.17 z"/>
<path transform="translate(0,0)" fill="rgb(245,252,252)" d="M 1684 1278.01 L 1685.94 1277.66 C 1686.05 1289.53 1687.35 1364.47 1684.98 1371.59 C 1684.34 1371.43 1683.71 1371.27 1683.07 1371.12 L 1682.58 1368.41 L 1682.01 1369.92 L 1680.92 1369.91 L 1680.33 1371.12 C 1681.47 1366.11 1681.15 1346.19 1681.14 1339.78 L 1680.96 1278.17 L 1684 1278.01 z"/>
<path transform="translate(0,0)" fill="rgb(24,23,23)" d="M 1684 1278.01 L 1685.94 1277.66 C 1686.05 1289.53 1687.35 1364.47 1684.98 1371.59 C 1683.08 1367.91 1683.9 1288.05 1684 1278.01 z"/>
<path transform="translate(0,0)" fill="rgb(24,23,23)" fill-opacity="0.988235" d="M 1680.33 1371.12 C 1679.34 1371.59 1678.68 1371.57 1677.54 1371.75 C 1675.29 1368.37 1675.34 1279.68 1678.01 1277.21 L 1680.96 1278.17 L 1681.14 1339.78 C 1681.15 1346.19 1681.47 1366.11 1680.33 1371.12 z"/>
<path transform="translate(0,0)" fill="rgb(24,23,23)" d="M 1822.9 1276.43 C 1823.21 1276.65 1823.57 1276.81 1823.83 1277.09 C 1826.67 1280.06 1826.14 1362.85 1824.53 1372.93 C 1821.1 1369.24 1821.39 1286.16 1822.9 1276.43 z"/>
<path transform="translate(0,0)" fill="rgb(24,23,23)" d="M 1626.94 1276.53 C 1627.22 1276.74 1627.54 1276.9 1627.77 1277.15 C 1630.03 1279.67 1629.77 1364.2 1628.53 1372.86 L 1626.68 1370.77 C 1625.38 1359.42 1624.88 1287.77 1626.94 1276.53 z"/>
<path transform="translate(0,0)" fill="rgb(24,23,23)" d="M 1777.16 1276.68 C 1777.31 1276.81 1777.49 1276.9 1777.62 1277.06 C 1780.33 1280.43 1779.36 1362.55 1778.5 1372.62 C 1778.19 1372.37 1777.83 1372.16 1777.56 1371.86 C 1774.6 1368.55 1775.54 1286.08 1777.16 1276.68 z"/>
<path transform="translate(0,0)" fill="rgb(24,23,23)" d="M 1688.25 1279.93 L 1690.01 1277.48 L 1691.1 1277.88 C 1692 1283.87 1691.98 1311.26 1691.8 1318.56 C 1691.43 1333.32 1692.75 1356.63 1691.38 1370.71 L 1690.16 1371.91 C 1686.79 1363.22 1690.91 1296.91 1688.25 1279.93 z"/>
<path transform="translate(0,0)" fill="rgb(24,23,23)" d="M 1771.84 1276.55 C 1776.43 1281.09 1773.04 1345.78 1774 1357.25 C 1774.26 1360.26 1773.81 1369.24 1773.21 1372.47 L 1771.79 1370.91 C 1770.29 1359.66 1770.14 1288.06 1771.84 1276.55 z"/>
<path transform="translate(0,0)" fill="rgb(245,252,252)" d="M 329.86 1337.01 C 342.478 1333.52 355.564 1340.79 359.262 1353.35 C 362.96 1365.91 355.904 1379.11 343.408 1383.01 C 335.14 1385.6 326.122 1383.52 319.816 1377.58 C 313.509 1371.65 310.895 1362.77 312.977 1354.36 C 315.058 1345.95 321.512 1339.32 329.86 1337.01 z"/>
<path transform="translate(0,0)" fill="rgb(27,89,156)" d="M 332.759 1346.64 C 337.704 1345.31 342.981 1346.76 346.549 1350.44 C 350.116 1354.11 351.416 1359.43 349.945 1364.33 C 348.473 1369.24 344.461 1372.96 339.461 1374.06 C 331.969 1375.71 324.53 1371.08 322.709 1363.63 C 320.887 1356.17 325.35 1348.63 332.759 1346.64 z"/>
<path transform="translate(0,0)" fill="rgb(245,252,252)" d="M 388.907 1167.85 C 400.981 1164.51 413.59 1171.03 417.838 1182.82 C 420.073 1189.02 419.656 1195.86 416.685 1201.74 C 413.713 1207.63 408.451 1212.03 402.135 1213.91 C 389.364 1217.71 375.943 1210.36 372.264 1197.55 C 368.586 1184.75 376.064 1171.4 388.907 1167.85 z"/>
<path transform="translate(0,0)" fill="rgb(27,89,156)" d="M 390.169 1177.68 C 394.993 1175.81 400.456 1176.71 404.414 1180.05 C 408.372 1183.38 410.195 1188.61 409.168 1193.68 C 408.14 1198.75 404.426 1202.86 399.482 1204.39 C 392.2 1206.65 384.441 1202.73 381.932 1195.53 C 379.422 1188.33 383.064 1180.44 390.169 1177.68 z"/>
<path transform="translate(0,0)" fill="rgb(245,252,252)" d="M 909.677 1264.92 C 922.396 1261.81 935.246 1269.52 938.505 1282.2 C 941.764 1294.88 934.222 1307.82 921.583 1311.24 C 913.266 1313.48 904.384 1311.09 898.33 1304.96 C 892.276 1298.83 889.985 1289.92 892.334 1281.63 C 894.683 1273.34 901.307 1266.96 909.677 1264.92 z"/>
<path transform="translate(0,0)" fill="rgb(27,89,156)" d="M 910.869 1274.74 C 915.657 1273.1 920.957 1274.16 924.744 1277.52 C 928.532 1280.88 930.222 1286.01 929.17 1290.96 C 928.117 1295.91 924.483 1299.91 919.658 1301.44 C 912.319 1303.76 904.479 1299.74 902.072 1292.43 C 899.666 1285.12 903.587 1277.24 910.869 1274.74 z"/>
<path transform="translate(0,0)" fill="rgb(245,252,252)" d="M 655.885 1265.82 C 668.862 1265.39 682.154 1263.77 693.457 1271.78 C 705.457 1280.28 702.4 1293.59 694.601 1304.13 C 683.314 1313.05 670.384 1310.83 656.135 1310.51 L 655.885 1265.82 z"/>
<path transform="translate(0,0)" fill="rgb(27,89,156)" d="M 666.749 1274.16 C 683.272 1273.71 698.024 1279.08 686.908 1298.32 C 678.999 1302.83 675.731 1302.08 666.662 1302.02 C 666.354 1293.08 666.657 1283.17 666.749 1274.16 z"/>
<path transform="translate(0,0)" fill="rgb(253,254,254)" d="M 680.136 1096.2 C 714.411 1092.61 723.686 1129.12 694.192 1141.18 C 689.032 1141.93 684.724 1142.21 679.62 1140.66 C 673.041 1138.73 667.588 1134.1 664.609 1127.92 C 657.664 1113.21 666.72 1101.81 680.136 1096.2 z"/>
<path transform="translate(0,0)" fill="rgb(27,89,156)" d="M 685.503 1104.6 C 693.152 1103.66 700.147 1109.02 701.224 1116.65 C 702.302 1124.28 697.066 1131.37 689.454 1132.58 C 684.411 1133.38 679.327 1131.4 676.156 1127.4 C 672.986 1123.39 672.223 1117.99 674.16 1113.27 C 676.098 1108.54 680.434 1105.23 685.503 1104.6 z"/>
<path transform="translate(0,0)" fill="rgb(245,252,252)" d="M 334.812 1167.99 C 347.423 1164.38 360.588 1171.62 364.279 1184.21 C 367.971 1196.8 360.804 1210.01 348.237 1213.78 C 335.563 1217.57 322.22 1210.33 318.497 1197.64 C 314.775 1184.94 322.095 1171.64 334.812 1167.99 z"/>
<path transform="translate(0,0)" fill="rgb(27,89,156)" d="M 336.518 1177.78 C 343.755 1175.07 351.824 1178.72 354.569 1185.94 C 357.314 1193.17 353.703 1201.25 346.49 1204.03 C 339.231 1206.82 331.084 1203.18 328.322 1195.91 C 325.56 1188.64 329.235 1180.51 336.518 1177.78 z"/>
<path transform="translate(0,0)" fill="rgb(245,252,252)" d="M 267.94 1168.7 C 280.463 1168.52 293.15 1167.14 304.327 1174.27 C 316.766 1182.19 314.458 1196.01 306.463 1206.65 C 295.776 1215.96 281.644 1213.61 267.853 1213.21 L 267.94 1168.7 z"/>
<path transform="translate(0,0)" fill="rgb(27,89,156)" d="M 278.462 1177.11 C 294.874 1176.72 310.76 1183.11 297.941 1201.45 C 290.602 1205.69 286.9 1204.86 278.506 1204.54 L 278.462 1177.11 z"/>
<path transform="translate(0,0)" fill="rgb(253,254,254)" d="M 492.071 1096.37 C 504.562 1096.03 518.066 1094.65 528.863 1102.31 C 541.159 1111.03 538.758 1123.97 530.408 1134.73 C 519.174 1143.52 506.334 1141.29 492.149 1141 L 492.071 1096.37 z"/>
<path transform="translate(0,0)" fill="rgb(27,89,156)" d="M 502.616 1104.85 C 509.041 1104.74 513.783 1103.97 519.651 1107.23 C 528.941 1112.4 527.618 1121.01 522.384 1128.93 C 515.5 1133.17 510.813 1132.47 502.722 1132.54 C 502.564 1123.39 502.641 1114.03 502.616 1104.85 z"/>
<path transform="translate(0,0)" fill="rgb(253,254,254)" d="M 413.813 1369.51 C 416.578 1361.09 420.901 1340.63 427.498 1336.58 C 430.852 1336.99 429.299 1336.42 432.165 1338.71 C 433.608 1342.71 432.847 1342.13 431.318 1347.25 C 427.211 1359.05 423.316 1370.94 419.634 1382.88 L 408.15 1382.65 C 405.083 1371.96 402.473 1363.72 398.364 1353.35 C 395.104 1363.17 391.922 1373.01 388.818 1382.87 L 377.654 1382.81 L 362.68 1337.9 C 367.373 1337.61 369.023 1337.22 373.463 1338.38 C 375.36 1341.63 382.147 1363.77 383.867 1369.12 C 385.999 1360.55 390.083 1343.12 396.162 1337.22 C 405.802 1334.22 411.586 1362.22 413.813 1369.51 z"/>
<path transform="translate(0,0)" fill="rgb(253,254,254)" d="M 618.047 1168.19 C 647.827 1165.62 652.205 1200.63 629.695 1213.76 C 599.688 1216.61 596.08 1180.06 618.047 1168.19 z"/>
<path transform="translate(0,0)" fill="rgb(27,89,156)" d="M 620.901 1176.52 C 636.267 1177.14 636.116 1196.29 626.95 1205.24 C 610.879 1204.73 611.995 1185.33 620.901 1176.52 z"/>
<path transform="translate(0,0)" fill="rgb(245,252,252)" d="M 663.075 1168.02 C 691.364 1166.53 695.781 1202.97 672.026 1214.12 C 643.097 1215.19 639.362 1178.48 663.075 1168.02 z"/>
<path transform="translate(0,0)" fill="rgb(27,89,156)" d="M 664.756 1176.6 C 680.247 1177.43 679.296 1195.89 671 1205.14 C 654.595 1205.48 655.828 1185.74 664.756 1176.6 z"/>
<path transform="translate(0,0)" fill="rgb(245,252,252)" d="M 988.995 1096.08 C 1018 1093.03 1022.65 1129.99 999.969 1141.42 C 971.22 1144.81 965.768 1107.63 988.995 1096.08 z"/>
<path transform="translate(0,0)" fill="rgb(27,89,156)" d="M 991.786 1103.79 C 1007.16 1105.93 1006.08 1124.44 997.107 1133.34 C 981.976 1132.48 982.716 1112.66 991.786 1103.79 z"/>
<path transform="translate(0,0)" fill="rgb(253,254,254)" d="M 453.36 1265.66 C 459.391 1265.55 465.99 1265.21 471.979 1265.63 C 491.858 1267.04 502.155 1282.58 483.499 1296.13 C 485.998 1299.58 491.5 1306.06 491.252 1309.95 L 488.651 1311.27 C 473.461 1308.7 481.302 1297.48 467.245 1297.63 C 465.727 1297.64 465.582 1298.47 464.584 1299.66 C 464.199 1303.98 464.312 1305.27 462.679 1309.17 C 458.946 1311.35 458.664 1310.47 453.441 1310.26 C 453.135 1295.39 453.108 1280.52 453.36 1265.66 z"/>
<path transform="translate(0,0)" fill="rgb(27,89,156)" d="M 464.092 1273.97 C 470.883 1273.85 477.185 1273 481.456 1278.87 C 482.093 1282.84 481.565 1283.27 479.702 1287.1 C 474.037 1289.62 470.119 1289.11 464.05 1289.02 L 464.092 1273.97 z"/>
<path transform="translate(0,0)" fill="rgb(253,254,254)" d="M 708.068 1265.63 C 710.636 1265.59 712.47 1265.8 714.994 1266.05 C 721.58 1269.93 729.47 1285.79 733.916 1293.37 C 737.613 1286.69 747.549 1264.56 754.95 1264.65 C 760.707 1270.17 760.397 1306.08 757.912 1310.39 C 754.289 1310.86 754.164 1311.08 750.53 1310.06 C 748.445 1306.98 749.191 1306.75 749.079 1302.25 L 748.938 1284.12 C 745.503 1289.42 739.197 1303.74 733.648 1305.18 C 728.026 1303.61 721.379 1290.32 717.941 1284.6 C 717.972 1291.16 719.741 1305.69 715.587 1310.21 C 712.511 1311.25 712.649 1311.05 709.409 1310.37 C 706.532 1306.36 708.003 1273.18 708.068 1265.63 z"/>
<path transform="translate(0,0)" fill="rgb(253,254,254)" d="M 273.804 1337.47 C 277.818 1337.46 282.094 1337.3 286.076 1337.59 C 306.553 1339.07 315.41 1354.78 297.246 1368.17 L 307.206 1382.93 L 295.77 1382.86 C 292.628 1377.8 287.79 1367.51 280.923 1369.95 C 278.473 1373.25 278.21 1378.12 277.319 1382.46 C 274.103 1382.61 271.289 1383.09 268.357 1381.93 C 267.117 1372.31 267.703 1349.38 268.023 1339.13 C 270.245 1337.04 269.927 1337.73 273.804 1337.47 z"/>
<path transform="translate(0,0)" fill="rgb(27,89,156)" d="M 278.408 1346.01 C 289.273 1345.68 299.79 1345.54 294.231 1360 C 288.438 1361.86 284.331 1361.47 278.329 1361.38 C 278.322 1356.25 278.348 1351.13 278.408 1346.01 z"/>
<path transform="translate(0,0)" fill="rgb(253,254,254)" d="M 445.063 1096.17 C 450.2 1096.05 455.338 1095.98 460.477 1095.97 C 483.325 1096.06 493.176 1113.47 475.069 1126.47 C 477.802 1131.09 481.842 1135.43 483.328 1140.27 L 481.169 1141.52 C 480.251 1141.49 479.333 1141.44 478.415 1141.39 C 466.143 1140.59 470.793 1124.24 456.767 1128.19 C 453.645 1132.7 457.833 1136.83 453.914 1140.99 C 450.608 1141.04 448.563 1141.45 445.765 1139.76 C 444.336 1137.5 445.06 1102.02 445.063 1096.17 z"/>
<path transform="translate(0,0)" fill="rgb(27,89,156)" d="M 456.103 1104.42 C 463.123 1104.44 470.321 1103.25 473.225 1110.8 C 472.985 1114.91 472.455 1115.36 470.365 1119.09 C 465.632 1120.22 460.346 1119.96 455.413 1120 C 455.387 1113.95 455.522 1110.43 456.103 1104.42 z"/>
<path transform="translate(0,0)" fill="rgb(253,254,254)" d="M 427.116 1168.45 C 438.526 1168.45 466.104 1165.2 465.794 1183.95 C 465.716 1188.66 465.292 1190.9 461.885 1194.26 L 457.589 1198.44 C 457.609 1205.76 463.381 1205.2 464.746 1211.65 C 462.354 1214.16 462.63 1213.4 458.441 1214.22 C 450.045 1212.64 450.919 1195.99 438.575 1200.49 C 435.778 1206.14 440.682 1209.31 435.648 1213.24 C 431.809 1213.8 432.015 1213.85 428.383 1212.55 C 425.217 1207.98 427.11 1175.91 427.116 1168.45 z"/>
<path transform="translate(0,0)" fill="rgb(27,89,156)" d="M 437.645 1177.06 C 447.563 1176.8 460.232 1176.37 452.907 1190.76 C 447.141 1192.65 443.615 1192.23 437.583 1192.2 C 437.529 1187.23 437.62 1182.05 437.645 1177.06 z"/>
<path transform="translate(0,0)" fill="rgb(245,252,252)" d="M 759.704 1168.43 L 766.019 1168.92 C 772.384 1172.47 780.35 1188.69 784.664 1195.93 C 788.784 1189.81 799.068 1168.03 805.426 1167.56 C 812.386 1171.91 811.296 1208.07 807.709 1213.58 C 804.119 1213.6 804.303 1213.74 801.046 1212.33 C 799.285 1209.88 800.02 1205.09 800.154 1201.75 L 800.054 1187.01 C 796.013 1193.4 790.275 1205.66 784.184 1207.61 C 778.764 1205.96 772.183 1192.75 768.894 1187.2 C 768.81 1195.13 770.913 1205.82 767.59 1212 C 764.211 1214.2 765.509 1213.56 760.979 1213.63 L 759.675 1212.34 C 758.784 1204.83 758.453 1175.75 759.704 1168.43 z"/>
<path transform="translate(0,0)" fill="rgb(253,254,254)" d="M 712.91 1168.47 C 716.132 1168.45 724.806 1168.83 727.363 1168.45 C 751.968 1164.74 762.658 1192.06 737.607 1200.46 C 732.964 1200.57 727.86 1200.44 723.174 1200.42 C 723.22 1204.05 723.799 1209.38 722.151 1212.34 C 719.377 1214.24 716.229 1213.57 712.661 1213.43 C 712.644 1198.6 712.433 1183.24 712.91 1168.47 z"/>
<path transform="translate(0,0)" fill="rgb(27,89,156)" d="M 723.205 1176.98 C 730.174 1176.83 736.565 1175.69 740.58 1182.11 C 741.024 1186.25 740.795 1186.45 739.093 1190.4 C 732.344 1192.52 730.097 1192.13 723.109 1192.09 L 723.205 1176.98 z"/>
<path transform="translate(0,0)" fill="rgb(245,252,252)" d="M 359.843 1265.19 L 360.89 1265.27 C 361.769 1265.34 362.648 1265.41 363.527 1265.48 C 371.668 1265.59 384.471 1285.28 390.086 1292.36 C 390.23 1284.57 387.393 1270.77 393.417 1265.96 C 396.174 1265.82 397.448 1265.37 399.695 1266.82 C 401.307 1273.75 401.429 1304.9 399.634 1311.28 C 397.875 1311.15 393.583 1310.87 392.359 1309.76 C 383.949 1302.13 377.273 1292.1 369.812 1283.43 C 369.749 1291.56 373.05 1305.39 366.597 1310.42 C 362.901 1310.7 363.386 1311.21 360.478 1309.84 C 357.979 1302.17 359.562 1275.01 359.843 1265.19 z"/>
<path transform="translate(0,0)" fill="rgb(253,254,254)" d="M 947.512 1265.79 C 950.073 1265.67 951.944 1265.82 954.472 1265.99 C 961.892 1269.85 972.489 1285.3 978.693 1292.59 C 978.789 1285.38 976.04 1270.55 981.374 1265.96 C 984.447 1265.85 985.427 1265.52 988.23 1266.73 C 989.099 1272.3 989.63 1307.3 987.577 1311.18 C 986.843 1311.16 984.753 1311.05 984.182 1310.96 C 976.69 1309.78 963.048 1289.73 957.956 1283.17 C 957.889 1290.58 959.515 1305.69 955.669 1310.59 C 952.401 1310.59 951.059 1310.9 948.216 1309.27 C 946.412 1300.16 947.354 1275.99 947.512 1265.79 z"/>
<path transform="translate(0,0)" fill="rgb(253,254,254)" d="M 875.87 1096.22 C 881.413 1095.49 894.46 1093.6 894.831 1101.09 C 890.23 1109.26 873.928 1099.2 871.098 1112.55 C 878.046 1116.63 896.872 1106.33 897.037 1129.91 C 884.312 1166.16 832.851 1117.2 875.87 1096.22 z"/>
<path transform="translate(0,0)" fill="rgb(27,89,156)" d="M 875.857 1120.66 C 881.783 1120.72 885.82 1121.24 886.934 1127.88 C 886.016 1131.5 885.097 1131.97 882.412 1134.54 C 876.56 1134.27 872.859 1133.94 871.293 1127.6 C 872.061 1123.72 872.956 1123.33 875.857 1120.66 z"/>
<path transform="translate(0,0)" fill="rgb(253,254,254)" d="M 620.291 1265.87 C 624.588 1265.81 630.524 1264.56 632.657 1268.72 C 639.509 1282.09 645.214 1296.64 651.034 1310.48 C 633.005 1310.91 641.995 1304.06 634.095 1301.07 L 615.795 1300.93 C 614.356 1304.79 613.982 1306.35 611.642 1309.65 C 608.399 1311.61 604.685 1310.79 600.768 1310.5 C 607.593 1295.76 614.103 1280.88 620.291 1265.87 z"/>
<path transform="translate(0,0)" fill="rgb(27,89,156)" d="M 625.471 1276.79 C 628.118 1279.43 632.123 1288.5 631.589 1292.48 L 629.246 1293.06 C 624.974 1293.09 624.397 1293.79 621.235 1292 C 620.01 1287.1 623.275 1281.89 625.471 1276.79 z"/>
<path transform="translate(0,0)" fill="rgb(253,254,254)" d="M 641.817 1337.98 C 646.097 1337.68 646.98 1337.62 651.181 1338.18 C 655.144 1340.87 669.192 1375.69 672.131 1382.52 C 668.145 1382.75 666.769 1383.02 662.945 1382.18 C 658.722 1379.09 659.509 1377.82 656.847 1373.62 L 654.25 1373.16 L 636.842 1373.09 C 635.561 1376.91 635.305 1378.3 633.068 1381.56 C 629.869 1383.62 625.977 1382.87 622.011 1382.67 C 628.473 1367.71 635.075 1352.81 641.817 1337.98 z"/>
<path transform="translate(0,0)" fill="rgb(38,80,113)" d="M 646.36 1349.47 C 649.629 1352.46 652.95 1360.04 652.607 1364.53 L 650.234 1365.32 C 645.961 1365.24 645.38 1365.93 642.268 1364.06 C 641.304 1359.38 644.326 1354.39 646.36 1349.47 z"/>
<path transform="translate(0,0)" fill="rgb(253,254,254)" d="M 514.53 1266.05 C 517.956 1265.89 522.736 1265.24 525.356 1267.11 C 528.795 1273.22 543.943 1304.58 543.232 1309.83 C 539.809 1311.07 539.979 1311.16 536.164 1310.58 C 530.91 1307.22 533.488 1302.03 527.25 1301.01 L 510.405 1301.14 C 508.806 1304.59 507.46 1308.72 504.452 1310.77 C 501.176 1310.75 499.283 1311.06 496.411 1309.5 C 497.74 1303.62 511.631 1272.76 514.53 1266.05 z"/>
<path transform="translate(0,0)" fill="rgb(38,80,113)" d="M 519.909 1276.45 C 522.139 1280.98 526.302 1287.77 525.215 1292.52 L 521.555 1293.46 C 518.884 1293.31 517.658 1293.54 515.412 1292.17 C 514.136 1286.62 517.351 1282.02 519.909 1276.45 z"/>
<path transform="translate(0,0)" fill="rgb(253,254,254)" d="M 565.494 1096.29 L 567.329 1096.56 C 569.697 1099.18 586.809 1137.09 586.951 1140.48 C 583.101 1141.98 580.634 1141.84 577.152 1139.97 C 573.23 1131.01 573.499 1131.9 564.25 1131.83 C 541.923 1131.62 556.385 1136.56 544.477 1142.61 C 541.31 1142.32 541.535 1142.27 538.936 1140.36 C 540.116 1134.9 552.499 1104.89 556.84 1098.7 C 558.757 1095.97 562.057 1096.52 565.494 1096.29 z"/>
<path transform="translate(0,0)" fill="rgb(38,80,113)" d="M 562.297 1106.77 C 564.511 1110.18 569.214 1119.42 567.837 1123.29 L 564.863 1124.08 C 560.238 1123.82 560.195 1124.61 557.333 1122.27 C 556.663 1118.23 560.469 1111.18 562.297 1106.77 z"/>
<path transform="translate(0,0)" fill="rgb(245,252,252)" d="M 322.789 1096.12 L 333.519 1096.5 C 339.97 1111.45 346.958 1125.82 353.334 1141.03 C 349.839 1141.09 348.284 1141.06 344.815 1140.74 C 338.606 1136.71 341.96 1133.31 336.25 1131.85 L 318.556 1131.73 C 316.814 1135.22 315.893 1139.29 312.912 1141.09 C 309.507 1141.06 307.208 1141.57 304.527 1140.1 C 308.244 1128.32 317.619 1108.12 322.789 1096.12 z"/>
<path transform="translate(0,0)" fill="rgb(38,80,113)" d="M 328.174 1106.77 C 330.169 1110.39 335.037 1119.41 333.755 1123.27 L 330.959 1123.98 C 326.68 1123.92 326.316 1124.63 323.307 1122.71 C 322.247 1117.36 325.696 1112.18 328.174 1106.77 z"/>
<path transform="translate(0,0)" fill="rgb(245,252,252)" d="M 597 1337.49 C 601.779 1337.38 615.87 1336.21 618.662 1339.16 C 618.604 1343.65 619.318 1341.87 617.421 1345.17 C 609.841 1348.15 597.905 1341.95 593.202 1350.94 C 595.218 1361.16 610.088 1352.33 615.788 1356.98 C 616.287 1370.63 606.871 1360.16 596.384 1365.03 C 593.994 1368.45 594.874 1368.66 594.836 1373.82 C 602.394 1374.86 614.674 1372.27 619.304 1375.84 C 619.673 1379.19 619.934 1377.61 618.335 1380.71 C 612.433 1384.73 593.153 1382.82 584.579 1382.58 C 584.74 1367.63 584.759 1352.67 584.634 1337.71 L 597 1337.49 z"/>
<path transform="translate(0,0)" fill="rgb(253,254,254)" d="M 316.973 1265.79 C 323.021 1265.68 347.482 1264.79 350.989 1266.89 L 351.067 1269.94 C 344.948 1277.69 332.824 1271.52 326.316 1277.42 C 326.251 1280.82 326.299 1279.78 328.739 1283.19 C 336.171 1285.87 343.647 1280.49 348.961 1286.29 C 348.869 1294.6 334.065 1291.96 327.66 1291.88 C 327.438 1295.23 327.49 1297.02 327.661 1300.37 C 333.416 1306.75 348.095 1296.36 353.16 1305.79 C 351.122 1313.65 324.946 1310.62 316.999 1310.62 L 316.973 1265.79 z"/>
<path transform="translate(0,0)" fill="rgb(245,252,252)" d="M 284.637 1265.13 C 290.807 1264.86 306.483 1265.24 307.503 1273.38 C 300.58 1283.35 279.197 1263.78 276.134 1286.42 C 274.461 1298.79 287.534 1305.78 296.615 1301.14 C 298.747 1297.41 298.017 1292.24 298.117 1287.33 C 311.492 1287.28 308.632 1293.28 307.426 1304.37 C 302.14 1311.71 287.17 1313.39 279.044 1309.57 C 272.888 1306.63 268.283 1301.2 266.394 1294.65 C 261.986 1279.64 270.826 1269.35 284.637 1265.13 z"/>
<path transform="translate(0,0)" fill="rgb(253,254,254)" d="M 410.913 1265.82 C 419.427 1265.8 443.014 1261.63 445.079 1271.28 C 442.701 1277.27 428.551 1271.63 421.563 1275.03 C 417.547 1289.64 435.327 1280.83 441.127 1284.67 C 442.658 1287.68 442.385 1287.61 441.94 1291.04 C 439.648 1292.35 425.265 1291.76 421.452 1291.74 C 421.34 1293.18 421.126 1298.7 421.31 1299.58 C 422.593 1305.71 440.678 1299.17 445.371 1303.29 C 445.97 1306.58 446.293 1306.76 444.892 1309.85 C 442.435 1311.43 415.917 1310.52 411.018 1310.46 L 410.913 1265.82 z"/>
<path transform="translate(0,0)" fill="rgb(245,252,252)" d="M 474.417 1337.1 C 481.744 1336.6 494.265 1337.78 498.584 1344.55 L 497.954 1346.55 C 487.778 1354.27 482.784 1342.87 474.219 1346.76 C 466.241 1350.77 463.564 1362.56 469.247 1369.39 C 473.676 1374.72 481.89 1377.17 487.472 1372.31 C 489.356 1368.31 488.556 1364.89 488.212 1360.35 C 499.096 1358.47 500.166 1365.54 498.06 1374.61 C 495.873 1384.03 478.181 1385.02 470.162 1381.64 C 464.399 1379.19 459.853 1374.55 457.533 1368.73 C 451.535 1353.68 460.304 1342.08 474.417 1337.1 z"/>
<path transform="translate(0,0)" fill="rgb(253,254,254)" d="M 394.701 1096.09 C 397.815 1096.01 400.379 1096.14 403.465 1096.3 C 410.165 1103.68 396.202 1138.73 418.44 1132.18 C 430.921 1128.51 420.78 1107.05 426.578 1096.79 C 429.084 1095.65 430.764 1096.16 433.518 1096.49 C 435.565 1098.68 434.846 1098.81 434.983 1102.75 C 435.194 1112.17 437.081 1128.86 430.545 1135.96 C 423.443 1143.97 406.778 1143.77 399.662 1136 C 392.542 1128.23 394.774 1106.65 394.701 1096.09 z"/>
<path transform="translate(0,0)" fill="rgb(245,252,252)" d="M 281.579 1095.31 C 287.045 1095.22 296.135 1095.6 299.816 1100.08 C 295.475 1114.09 284.887 1098.09 276.024 1107.52 L 276.484 1109.14 C 283.85 1115.25 300.101 1116.01 301.985 1126.64 C 303.765 1136.68 292.303 1140.57 285.424 1142.27 C 278.564 1142.11 273.69 1141.6 267.487 1138.48 C 265.281 1134.99 265.78 1136.86 266.02 1132.67 C 272.964 1124.14 281.897 1141.44 290.503 1129.61 L 290.035 1127.55 C 283.625 1121.8 268.848 1121.38 265.817 1112.02 C 262.383 1101.42 273.406 1097.11 281.579 1095.31 z"/>
<path transform="translate(0,0)" fill="rgb(245,252,252)" d="M 842.326 1265.16 C 844.213 1265.04 846.104 1264.98 847.995 1265.01 C 852.42 1265.09 859.801 1265.94 863.042 1269.25 L 862.871 1271.77 C 857 1278.69 842.265 1269.76 839.2 1277.22 C 842.741 1286.49 860.103 1282.08 867.122 1295.65 C 868.067 1304.51 858.106 1309.42 850.848 1311.21 C 843.757 1311.19 833.785 1311.72 829.164 1305.82 C 829.526 1302.04 828.874 1303.69 831.148 1300.69 C 838.704 1298.37 847.68 1307.51 854.79 1299.1 C 853.053 1291.02 821.527 1290.75 829.81 1274.36 C 832.898 1268.24 836.121 1267.34 842.326 1265.16 z"/>
<path transform="translate(0,0)" fill="rgb(245,252,252)" d="M 483.051 1168.18 C 489.823 1167.7 499.697 1167.08 505.027 1171.63 C 505.097 1174.78 504.705 1174.67 503.27 1177.71 C 498.07 1179.87 486.965 1172.37 481.149 1179.95 C 485.29 1187.55 514.881 1189.3 506.625 1205.88 C 503.905 1211.34 499.04 1212.62 493.601 1214.31 C 486.96 1214.34 475.636 1214.53 471.423 1208.83 C 471.334 1205.18 470.903 1206.83 472.768 1203.7 C 480.005 1200.27 491.122 1210.97 496.839 1202.12 C 493.538 1194.06 476.926 1194.61 472.125 1185.56 C 467.617 1177.05 476.728 1171.4 483.051 1168.18 z"/>
<path transform="translate(0,0)" fill="rgb(245,252,252)" d="M 554.174 1337.05 C 560.579 1336.81 570.876 1336.1 574.926 1341.61 C 574.365 1345.32 575.049 1343.68 572.741 1346.7 C 565.976 1349.21 558.753 1341.76 551.521 1349.18 C 552.684 1356.54 574.402 1356.78 577.091 1366.71 C 579.962 1377.31 571.587 1380.68 563.452 1383.24 C 557.63 1383.33 544.089 1383.07 540.604 1378.12 L 541.093 1375.64 C 548.614 1368.07 562.725 1379.13 567.325 1372.16 C 564.993 1363.35 545.263 1364.26 540.212 1353.73 C 536.335 1345.65 548.254 1339.3 554.174 1337.05 z"/>
<path transform="translate(0,0)" fill="rgb(245,252,252)" d="M 800.039 1265.11 C 806.933 1264.75 816.9 1263.57 821.079 1269.76 C 821.565 1273.72 822.014 1272 819.983 1275.16 C 813.25 1277.69 811.645 1272.31 803.397 1273.14 C 799.703 1274.88 798.02 1275.92 798.9 1279.96 C 806.744 1286.47 830.648 1285.28 823.025 1302.69 C 820.674 1308.06 816.34 1309.33 811.159 1311.04 C 804.066 1311.24 792.305 1311.86 788.056 1305.45 C 788.361 1301.76 787.669 1303.27 789.863 1300.63 C 797.867 1298.44 804.837 1306.92 813.183 1299.84 C 812.726 1291.94 791.889 1291.92 788.62 1282.66 C 785.089 1272.66 792.222 1268.44 800.039 1265.11 z"/>
<path transform="translate(0,0)" fill="rgb(245,252,252)" d="M 1053.31 1131.49 C 1053.63 1130.65 1053.97 1129.83 1054.33 1129 C 1059.22 1117.71 1071.57 1099.33 1083.32 1094.61 L 1084.8 1096.19 C 1083.99 1102.31 1079.57 1107.21 1075.89 1112.56 C 1076.85 1113.08 1078.31 1113.74 1079.04 1114.42 C 1081.77 1114.69 1085.79 1114.76 1088.63 1114.88 C 1091.52 1117.46 1089.37 1121.26 1090.23 1121.89 C 1094.14 1124.76 1094.85 1121.9 1097.32 1126.68 C 1096.96 1129.49 1097.28 1129.84 1095.38 1131.78 L 1091.49 1131.8 C 1087.65 1135 1092.04 1136.72 1088.51 1141.06 C 1075.77 1142.6 1082.28 1137.57 1078.81 1132.4 C 1073.85 1131.19 1059.61 1131.69 1053.31 1131.49 z"/>
<path transform="translate(0,0)" fill="rgb(38,80,113)" d="M 1079.04 1114.42 C 1079.61 1118.88 1080.27 1118.42 1078.66 1121.82 C 1074.84 1124.03 1073.94 1124.79 1070.91 1121.77 C 1071.29 1117.67 1073.2 1116.3 1075.89 1112.56 C 1076.85 1113.08 1078.31 1113.74 1079.04 1114.42 z"/>
<path transform="translate(0,0)" fill="rgb(245,252,252)" d="M 739.624 1095.25 C 745.531 1095.63 754.836 1096.53 757.421 1102.69 C 756.971 1106.61 757.736 1104.97 755.127 1107.84 C 747.979 1109.59 748.227 1105 744.103 1104.49 C 716.375 1101.03 726.535 1148.72 752.691 1127.73 L 759.974 1134.26 C 750.014 1141.63 738.724 1145.45 727.401 1138.13 C 722.111 1134.69 718.434 1129.26 717.204 1123.07 C 713.937 1107.11 725.05 1097.74 739.624 1095.25 z"/>
<path transform="translate(0,0)" fill="rgb(253,254,254)" d="M 765.293 1337.16 C 774.346 1336.55 788.696 1336.82 787.956 1350.02 C 787.373 1360.4 777.918 1367.62 770.712 1374.07 C 775.919 1373.93 789.749 1372.39 791.018 1379.35 C 785.362 1384.24 779.903 1383.01 772.25 1382.79 C 766.16 1382.92 759.123 1384.4 755.493 1378.94 C 756.339 1369.3 781.535 1360.39 777.288 1348.7 C 771.532 1343.53 767.987 1345.43 762.59 1349.34 C 759.204 1349.43 759.171 1349.75 756.434 1347.93 C 754.669 1341.03 760.054 1339.43 765.293 1337.16 z"/>
<path transform="translate(0,0)" fill="rgb(245,252,252)" d="M 836.705 1095.28 C 844.1 1096.02 854.729 1098.29 854.052 1108.21 C 853.327 1118.83 843.988 1125.93 836.642 1132.52 C 842.968 1132.69 849.717 1130.4 854.401 1134.77 C 855.159 1137.52 855.613 1137.84 854.77 1140.44 C 849.783 1141.92 834.58 1141.39 828.75 1141.4 C 824.263 1141.54 823.147 1142.14 821.258 1137.96 C 822.797 1128.03 845.014 1118.8 843.862 1107.12 C 837.862 1100.14 830.703 1107.64 826.094 1107.78 C 822.057 1106.22 822.407 1107.09 820.508 1104.15 C 822.253 1098.4 831.59 1096.07 836.705 1095.28 z"/>
<path transform="translate(0,0)" fill="rgb(253,254,254)" d="M 1033.43 1095.29 C 1065.53 1098.38 1046.73 1120.33 1033.56 1132.42 C 1038.67 1132.45 1047.85 1132.02 1051.93 1134.13 C 1052.4 1137.42 1052.44 1137.19 1051.43 1140.35 C 1046.56 1141.98 1031.49 1141.24 1025.75 1141.19 C 1021.46 1141.1 1021.87 1141.81 1019.11 1139.73 C 1015.53 1127.58 1046.58 1117.67 1039.8 1105.38 C 1034.86 1103.46 1028.49 1106.02 1023.46 1107.63 C 1020.5 1107.21 1019.22 1105.51 1016.89 1103.43 L 1015.82 1102.48 C 1022.65 1098.11 1025.46 1096.64 1033.43 1095.29 z"/>
<path transform="translate(0,0)" fill="rgb(245,252,252)" d="M 946.198 1096.21 C 954.963 1095.2 969.446 1095.35 968.846 1108.06 C 968.342 1118.72 958.846 1125.96 951.529 1132.53 C 957.654 1132.5 967.496 1131.34 971.495 1136.57 L 971.096 1137.96 C 964.554 1142.74 958.997 1141.43 950.626 1141.18 C 944.979 1141.3 939.959 1142.76 936.983 1137.49 C 938.413 1127.01 959.083 1119.65 959.103 1107.57 C 953.046 1100.26 945.255 1109.01 937.155 1106.82 C 935.475 1104.68 936.087 1105.93 936.249 1102.5 C 939.235 1099.3 942.281 1098.18 946.198 1096.21 z"/>
<path transform="translate(0,0)" fill="rgb(245,252,252)" d="M 547.222 1168.47 C 559.359 1168.41 571.496 1168.57 583.627 1168.96 C 580.604 1182.11 572.99 1200.03 566.332 1212.15 C 565.354 1213.93 564.86 1213.38 562.133 1213.71 C 559.625 1213.45 558.117 1213.19 555.639 1212.69 C 557.52 1206.1 567.84 1184.35 571.144 1177.05 C 567.07 1176.92 559.423 1176.12 556.25 1177.95 C 556.202 1180.57 556.328 1181.16 555.627 1183.64 L 552.058 1185.1 C 548.746 1184.74 550.13 1185.41 547.788 1182.99 C 546.202 1178.27 546.941 1173.54 547.222 1168.47 z"/>
<path transform="translate(0,0)" fill="rgb(253,254,254)" d="M 765.958 1096.43 C 774.187 1096.33 795.059 1093.4 800.195 1099.31 C 800.805 1102.69 801.229 1101.31 799.779 1103.78 C 795.855 1105.43 790.612 1104.85 786.162 1104.78 L 786.098 1130.93 C 786.25 1134.24 786.785 1137.21 785.461 1140.13 C 782.894 1141.76 778.219 1141.95 775.65 1140.27 C 774.384 1132.92 775.127 1113.63 775.144 1104.75 C 769.023 1105.03 765.162 1105.64 760.14 1101.79 L 760.401 1098.26 C 762.551 1097.13 763.601 1097.04 765.958 1096.43 z"/>
<path transform="translate(0,0)" fill="rgb(245,252,252)" d="M 583.978 1096.32 C 599.118 1095.17 598.675 1104 606.226 1115.93 C 610.791 1110.06 613.138 1103.72 617.714 1098.01 C 619.471 1095.82 623.023 1096.46 626.122 1096.43 L 626.851 1097.49 C 625.729 1102.35 621.036 1108.9 618.235 1113.38 C 616.527 1116.08 614.239 1119.66 613.132 1122.65 C 611.001 1128.43 612.747 1136.37 607.798 1140.52 C 604.971 1141.32 604.687 1141.78 602.028 1140.86 C 599.496 1136.02 602.458 1130.2 599.116 1122.94 C 594.843 1113.65 587.653 1105.58 583.978 1096.32 z"/>
<path transform="translate(0,0)" fill="rgb(253,254,254)" d="M 350.984 1096.03 C 360.929 1096.25 383.666 1093.5 389.765 1099.17 C 390.653 1102.3 390.823 1100.88 389.606 1103.6 C 385.345 1105.36 380.442 1104.84 375.687 1104.81 L 375.561 1128.76 C 375.603 1135.81 376.626 1137.47 370.995 1142.17 C 369.429 1142.3 367.604 1142.86 367.062 1141.92 C 363.457 1135.68 364.938 1111.92 365.009 1104.76 C 360.631 1104.65 356.626 1105.56 352.635 1103.97 C 350.363 1100.49 351.131 1100.94 350.984 1096.03 z"/>
<path transform="translate(0,0)" fill="rgb(253,254,254)" d="M 669.851 1337.82 C 677.588 1337.63 704.214 1335.9 708.418 1339.28 C 708.785 1342.55 709.203 1342.54 708.047 1345.34 C 704.432 1347.02 698.691 1346.26 694.473 1346.09 C 694.192 1353.11 694.412 1361.36 694.436 1368.49 C 694.516 1372.55 695.293 1379.72 692.957 1382.73 C 689.18 1382.79 688.407 1382.94 684.661 1381.87 C 683.279 1376.44 683.833 1353.23 683.853 1346.1 C 679.919 1346.35 675.292 1347.1 671.755 1345.7 C 669.369 1342.54 670.162 1342.62 669.851 1337.82 z"/>
<path transform="translate(0,0)" fill="rgb(245,252,252)" d="M 549.833 1265.58 C 553.367 1265.53 557.013 1265.2 559.672 1267.1 C 560.675 1274.06 560.103 1293.83 560.028 1301.95 C 568.249 1302.07 574.588 1300.01 581.363 1302.87 C 583.434 1305.97 582.592 1306.18 582.365 1310.89 C 572.204 1310.25 559.938 1310.54 549.617 1310.53 C 549.501 1295.55 549.573 1280.56 549.833 1265.58 z"/>
<path transform="translate(0,0)" fill="rgb(253,254,254)" d="M 727.907 1337.76 L 747.686 1337.76 C 747.908 1352.79 747.931 1367.82 747.755 1382.84 C 746.712 1382.89 741.804 1383.11 741.281 1382.96 C 730.613 1379.9 741.621 1354.08 735.724 1346.16 C 732.751 1346.09 732.408 1346.02 729.494 1345.37 C 727.25 1342.26 728.028 1342.46 727.907 1337.76 z"/>
<path transform="translate(0,0)" fill="rgb(253,254,254)" d="M 1550.7 1384.44 C 1555.05 1382.82 1559.93 1383.67 1563.47 1386.67 C 1567 1389.67 1568.64 1394.35 1567.75 1398.9 C 1566.85 1403.45 1563.57 1407.16 1559.16 1408.6 C 1552.54 1410.76 1545.4 1407.24 1543.1 1400.66 C 1540.8 1394.09 1544.18 1386.88 1550.7 1384.44 z"/>
<path transform="translate(0,0)" fill="rgb(253,254,254)" d="M 1551.48 1337.48 C 1558.11 1335.51 1565.11 1339.16 1567.28 1345.73 C 1569.45 1352.31 1566 1359.41 1559.49 1361.77 C 1555.11 1363.35 1550.22 1362.43 1546.71 1359.37 C 1543.21 1356.3 1541.65 1351.57 1542.64 1347.02 C 1543.63 1342.47 1547.02 1338.82 1551.48 1337.48 z"/>
<path transform="translate(0,0)" fill="rgb(253,254,254)" d="M 1549.77 1291.56 C 1556.16 1288.61 1563.74 1291.38 1566.71 1297.76 C 1569.69 1304.15 1566.94 1311.73 1560.57 1314.73 C 1554.17 1317.74 1546.54 1314.98 1543.55 1308.56 C 1540.56 1302.15 1543.35 1294.53 1549.77 1291.56 z"/>
<path transform="translate(0,0)" fill="rgb(253,254,254)" d="M 1552.41 1244.42 C 1559.13 1242.92 1565.82 1247.06 1567.48 1253.75 C 1569.14 1260.43 1565.16 1267.22 1558.51 1269.04 C 1554.07 1270.25 1549.32 1268.96 1546.1 1265.67 C 1542.88 1262.38 1541.7 1257.61 1543.01 1253.19 C 1544.32 1248.78 1547.91 1245.42 1552.41 1244.42 z"/>
<path transform="translate(0,0)" fill="rgb(245,252,252)" d="M 769.065 1265.74 C 772.054 1265.59 776.723 1265.07 778.965 1266.77 C 780.076 1277.32 779.378 1299.38 779.325 1310.77 C 775.175 1310.72 772.586 1311.24 769.471 1309.31 C 768.275 1299.84 768.998 1276.27 769.065 1265.74 z"/>
<path transform="translate(0,0)" fill="rgb(253,254,254)" d="M 872.821 1265.77 C 876.245 1265.75 880.043 1265.41 882.709 1267.14 C 883.92 1276.45 883.155 1300.38 883.068 1310.8 C 879.282 1310.84 878.191 1310.82 874.465 1310.33 C 871.562 1307.13 872.782 1272.66 872.821 1265.77 z"/>
<path transform="translate(0,0)" fill="rgb(253,254,254)" d="M 509.469 1369.71 C 513.986 1370.52 515.169 1371.34 517.361 1375.22 C 517.888 1382.52 514.814 1386.81 511.498 1393.45 L 506.621 1392.37 C 504.056 1387.92 511.058 1386.14 504.456 1376.11 C 505.689 1372.26 506.037 1372.91 509.469 1369.71 z"/>
<path transform="translate(0,0)" fill="rgb(245,252,252)" d="M 902.603 1128.91 C 905.634 1128.79 906.627 1128.94 909.581 1129.26 C 917.562 1134.72 911.543 1143.87 908.087 1150.8 C 905.279 1151.1 905.38 1151.03 902.595 1150.42 C 903.649 1141.01 899.569 1137.55 902.603 1128.91 z"/>
<path transform="translate(0,0)" fill="rgb(245,252,252)" d="M 629.704 1128.87 C 632.279 1128.83 633.503 1129.07 636.036 1129.42 C 643.816 1135.14 638.361 1143.9 634.484 1150.78 C 632.126 1151.07 631.921 1150.95 629.535 1150.63 C 629.794 1139.48 626.07 1136.87 629.704 1128.87 z"/>
<path transform="translate(0,0)" fill="rgb(245,252,252)" d="M 591.376 1178.66 C 594.858 1177.79 598.386 1179.91 599.248 1183.39 C 600.111 1186.88 597.978 1190.4 594.492 1191.25 C 591.021 1192.1 587.519 1189.98 586.661 1186.51 C 585.802 1183.04 587.911 1179.53 591.376 1178.66 z"/>
<path transform="translate(0,0)" fill="rgb(253,254,254)" d="M 591.889 1201.49 C 595.206 1200.78 598.508 1202.75 599.448 1206.01 C 600.387 1209.27 598.644 1212.7 595.458 1213.87 C 593.191 1214.69 590.652 1214.19 588.876 1212.55 C 587.1 1210.92 586.383 1208.43 587.017 1206.11 C 587.651 1203.78 589.53 1202 591.889 1201.49 z"/>
<path transform="translate(0,0)" fill="rgb(253,254,254)" d="M 516.693 1201.52 C 520.086 1200.5 523.671 1202.4 524.721 1205.79 C 525.771 1209.17 523.892 1212.77 520.514 1213.84 C 517.103 1214.92 513.462 1213.02 512.402 1209.61 C 511.342 1206.19 513.268 1202.56 516.693 1201.52 z"/>
<path transform="translate(0,0)" fill="rgb(245,252,252)" d="M 514.929 1179.54 C 516.878 1178.26 519.369 1178.15 521.425 1179.24 C 523.482 1180.34 524.778 1182.47 524.804 1184.8 C 524.831 1187.13 523.584 1189.29 521.553 1190.43 C 518.557 1192.11 514.764 1191.12 512.978 1188.18 C 511.192 1185.25 512.055 1181.42 514.929 1179.54 z"/>
<path transform="translate(0,0)" fill="rgb(27,89,156)" d="M 170.863 589.07 L 1524.17 589.062 C 1526.1 599.753 1528.87 607.744 1538.59 614.383 C 1545.03 618.753 1552.93 620.385 1560.58 618.92 C 1577.03 615.749 1582.69 603.749 1586.27 589.187 C 1681.05 588.19 1782.24 588.115 1877.01 589.19 L 1876.72 736.536 C 1876.69 760.194 1875.73 792.8 1876.96 815.72 C 1867.97 815.094 1853.64 815.588 1844.23 815.595 L 1780.45 815.636 C 1706.69 815.682 1630.97 816.569 1557.38 815.654 C 1551.3 812.089 1558 814.372 1553.52 809.152 C 1535.42 808.339 1514.23 808.864 1495.92 808.87 L 1394.05 808.907 L 1085.1 808.87 L 170.779 808.976 L 170.863 589.07 z"/>
<path transform="translate(0,0)" fill="rgb(253,254,254)" d="M 464.321 651.012 L 502.933 650.923 C 519.136 650.907 533.489 650.124 549.191 654.912 C 594.023 668.585 604.378 723.086 572.983 755.744 C 551.472 774.157 533.232 773.125 506.349 773.033 L 464.781 772.817 C 465.004 732.215 464.851 691.612 464.321 651.012 z"/>
<path transform="translate(0,0)" fill="rgb(27,89,156)" d="M 498.916 678.003 C 524.868 678.029 556.153 676.268 556.044 712.11 C 556.012 722.607 554.04 727.914 547.658 736.196 C 533.081 747.828 517.144 745.333 498.945 745.198 L 498.916 678.003 z"/>
<path transform="translate(0,0)" fill="rgb(253,254,254)" d="M 1054.3 649.364 C 1072.41 647.9 1089.34 650.794 1104.34 661.663 C 1117.91 671.501 1126.94 686.397 1129.38 702.979 C 1135.11 742.885 1107.89 769.235 1070.23 774.871 C 1050.72 775.797 1034.33 773.461 1018.28 761.174 C 1005.27 751.372 996.797 736.72 994.781 720.562 C 992.469 703.943 996.939 687.092 1007.18 673.803 C 1019.35 658.194 1035.27 651.813 1054.3 649.364 z"/>
<path transform="translate(0,0)" fill="rgb(27,89,156)" d="M 1058.72 677.788 C 1077.55 675.907 1094.34 689.657 1096.2 708.489 C 1098.06 727.322 1084.3 744.095 1065.46 745.941 C 1046.65 747.784 1029.91 734.04 1028.05 715.233 C 1026.18 696.426 1039.91 679.667 1058.72 677.788 z"/>
<path transform="translate(0,0)" fill="rgb(253,254,254)" d="M 609.27 651.046 L 638.537 651.065 L 681.562 721.041 C 694.884 697.836 709.297 674.214 722.964 651.142 L 752.784 651.077 L 752.976 772.935 L 720.92 772.896 L 720.944 759.5 L 720.924 707.126 C 710.061 724.959 699.399 742.914 688.942 760.988 L 673.46 760.887 C 662.548 744.743 651.29 725.846 640.974 709.175 L 641.165 772.922 L 609.176 772.857 L 609.27 651.046 z"/>
<path transform="translate(0,0)" fill="rgb(253,254,254)" d="M 1232.61 650.987 L 1266.21 651.017 L 1266.2 772.966 L 1236.9 772.875 C 1218.78 751.149 1200.67 728.531 1182.23 707.146 L 1182.49 772.948 L 1148.6 772.834 L 1148.6 651.005 L 1177.53 651.053 C 1196.02 672.042 1214.53 695.046 1232.66 716.57 L 1232.61 650.987 z"/>
<path transform="translate(0,0)" fill="rgb(253,254,254)" d="M 364.123 651.13 L 399.914 651.042 C 417.327 690.88 437.907 733.193 454.196 772.858 L 418.465 772.911 C 415.624 766.13 413.001 756.429 408.753 750.215 C 407.697 748.671 406.93 749.182 404.25 748.903 L 355.793 748.972 C 352.334 756.881 349.121 764.895 346.157 773.002 L 311.172 772.869 C 327.383 737.195 342.507 700.935 358.578 665.19 C 360.622 660.643 362.423 655.812 364.123 651.13 z"/>
<path transform="translate(0,0)" fill="rgb(27,89,156)" d="M 381.505 684.503 C 385.031 687.309 395.272 716.02 398.103 723.153 L 384.858 723.313 L 366.298 723.221 C 371.49 710.364 376.559 697.457 381.505 684.503 z"/>
<path transform="translate(0,0)" fill="rgb(253,254,254)" d="M 1289.98 651.042 L 1386.79 651.025 L 1386.67 677.728 L 1324.08 677.397 L 1324.21 698.355 L 1379 698.321 L 1379.02 723.726 L 1326.75 723.666 C 1325.4 723.798 1326.2 723.606 1324.48 724.668 C 1323.55 730.6 1324.02 739.784 1324.13 746.054 L 1389.84 745.996 L 1389.72 772.951 L 1289.97 772.823 C 1290.22 732.23 1290.23 691.636 1289.98 651.042 z"/>
<path transform="translate(0,0)" fill="rgb(253,254,254)" d="M 825.846 651.114 C 861.468 650.356 899.583 651.029 935.41 651.008 L 935.416 678.103 L 897.201 678.135 L 897.199 734.5 L 897.242 772.888 L 863.025 772.853 L 863.029 678.115 L 825.852 678.139 L 825.846 651.114 z"/>
<path transform="translate(0,0)" fill="rgb(253,254,254)" d="M 776.973 651.031 L 811.407 651.084 C 810.411 688.819 811.223 734.437 811.498 772.524 C 808.041 773.358 781.968 772.847 776.952 772.799 L 776.973 651.031 z"/>
<path transform="translate(0,0)" fill="rgb(253,254,254)" d="M 1550.14 687.504 C 1556.76 684.881 1564.26 688.132 1566.86 694.759 C 1569.47 701.387 1566.2 708.871 1559.56 711.459 C 1552.95 714.037 1545.5 710.78 1542.91 704.178 C 1540.31 697.576 1543.55 690.118 1550.14 687.504 z"/>
<path transform="translate(0,0)" fill="rgb(253,254,254)" d="M 1551.91 640.431 C 1556.44 639.308 1561.22 640.726 1564.41 644.135 C 1567.59 647.545 1568.68 652.411 1567.25 656.851 C 1565.82 661.292 1562.1 664.609 1557.52 665.52 C 1550.67 666.884 1543.98 662.53 1542.46 655.714 C 1540.94 648.897 1545.14 642.112 1551.91 640.431 z"/>
<path transform="translate(0,0)" fill="rgb(253,254,254)" d="M 1552.66 733.528 C 1559.57 732.272 1566.2 736.809 1567.53 743.701 C 1568.86 750.593 1564.39 757.271 1557.51 758.672 C 1553 759.592 1548.34 758.017 1545.31 754.546 C 1542.28 751.076 1541.35 746.245 1542.87 741.897 C 1544.39 737.548 1548.13 734.353 1552.66 733.528 z"/>
<path transform="translate(0,0)" fill="rgb(253,254,254)" d="M 1550.7 780.392 C 1557.34 778.041 1564.64 781.528 1566.98 788.176 C 1569.32 794.825 1565.83 802.113 1559.17 804.448 C 1552.53 806.779 1545.26 803.291 1542.92 796.654 C 1540.58 790.016 1544.06 782.739 1550.7 780.392 z"/>
<path transform="translate(0,0)" fill="rgb(27,89,156)" d="M 1543.98 940.856 C 1548.8 943.008 1550.14 943.742 1555.2 944.807 L 1555.2 964.961 L 1549.22 965.324 C 1538.39 964.245 1512.48 964.942 1500.88 964.953 L 1407.9 965.027 L 1108.28 964.991 L 170.705 965.121 C 170.743 956.985 170.821 949.076 170.451 940.935 L 1048.11 941.002 L 1375.2 940.995 C 1431.23 940.979 1488.04 941.481 1543.98 940.856 z"/>
<path transform="translate(0,0)" fill="rgb(253,254,254)" d="M 1542.24 1068.98 C 1543.29 1062.28 1549.38 1057.56 1556.13 1058.21 C 1562.88 1058.86 1567.95 1064.67 1567.69 1071.44 C 1567.43 1078.22 1561.93 1083.62 1555.15 1083.76 C 1551.37 1083.84 1547.74 1082.24 1545.25 1079.38 C 1542.76 1076.53 1541.66 1072.72 1542.24 1068.98 z"/>
<path transform="translate(0,0)" fill="rgb(253,254,254)" d="M 1555.2 964.961 C 1564.11 967.254 1572.75 974.478 1565.7 983.993 C 1562.88 987.725 1558.65 990.128 1554 990.636 C 1545.6 991.519 1542.82 985.022 1542.54 977.982 C 1542.3 971.826 1545.26 969.451 1549.22 965.324 L 1555.2 964.961 z"/>
<path transform="translate(0,0)" fill="rgb(253,254,254)" d="M 1543.98 940.856 C 1532.8 896.888 1593.89 930.831 1555.2 944.807 C 1550.14 943.742 1548.8 943.008 1543.98 940.856 z"/>
<path transform="translate(0,0)" fill="rgb(27,89,156)" d="M 401.027 829.267 C 466.161 822.422 481.985 908.172 416.279 920.946 C 403.414 921.747 392.763 921.116 381.255 914.296 C 370.335 907.866 362.562 897.205 359.779 884.843 C 353.364 855.125 373.043 834.566 401.027 829.267 z"/>
<path transform="translate(0,0)" fill="rgb(246,199,42)" d="M 401.392 850.821 C 410.161 848.334 419.589 850.766 426.06 857.184 C 432.532 863.601 435.042 873.009 432.629 881.798 C 430.216 890.586 423.253 897.393 414.412 899.606 C 401.032 902.954 387.442 894.948 383.885 881.622 C 380.329 868.297 388.124 854.583 401.392 850.821 z"/>
<path transform="translate(0,0)" fill="rgb(27,89,156)" d="M 1740.66 844.225 C 1777.65 844.224 1768.57 903.67 1768.3 929.632 C 1745.16 928.87 1717.19 929.719 1693.75 929.833 L 1674.96 929.738 C 1674.86 919.486 1674.87 909.021 1674.74 898.923 C 1674.51 880.145 1673.53 849.255 1699.53 848.841 C 1709.45 848.683 1713.69 852.983 1720.09 859.552 C 1720.69 858.538 1721.31 857.538 1721.96 856.553 C 1727.26 848.384 1731.38 846.181 1740.66 844.225 z"/>
<path transform="translate(0,0)" fill="rgb(246,199,42)" d="M 1736.19 869.881 C 1738.23 869.808 1741.62 869.622 1743.38 870.545 C 1751.61 874.855 1750.57 897.687 1748.03 904.32 L 1745.25 904.747 L 1730.25 904.554 C 1730.18 900.069 1730.14 895.584 1730.14 891.099 C 1730.16 882.169 1729.79 876.262 1736.19 869.881 z"/>
<path transform="translate(0,0)" fill="rgb(238,200,69)" d="M 1700.96 872.527 C 1702.12 872.702 1703.87 873.04 1705.03 873.341 C 1713.67 875.581 1714.29 898.061 1710.93 904.327 L 1708.25 904.696 L 1694.71 904.623 C 1694.4 892.506 1691.82 881.482 1700.96 872.527 z"/>
<path transform="translate(0,0)" fill="rgb(27,89,156)" d="M 754.381 830.43 C 770.065 830.287 787.54 829.345 802.965 831.053 C 837.596 834.888 847.962 871.204 817.806 891.246 C 822.262 897.634 833.268 912.613 835.98 918.984 C 833.48 920.357 831.32 919.909 828.153 919.958 L 809.975 919.948 C 804.45 911.344 799.38 903.155 793.009 895.116 L 779.011 895.124 L 778.948 919.813 L 754.146 919.928 C 753.963 890.095 754.041 860.262 754.381 830.43 z"/>
<path transform="translate(0,0)" fill="rgb(246,199,42)" d="M 779.078 850.129 C 792.58 849.993 822.521 849.888 806.766 872.535 C 799.074 877.081 788.358 875.997 779.314 875.908 L 779.078 850.129 z"/>
<path transform="translate(0,0)" fill="rgb(27,89,156)" d="M 470.953 830.407 C 477.744 830.414 484.535 830.501 491.324 830.669 C 503.344 842.049 519.506 864.219 531.827 877.774 C 532.21 862.46 531.896 845.863 531.963 830.413 C 540.079 830.395 548.195 830.498 556.307 830.723 C 556.53 860.408 556.604 890.094 556.528 919.78 L 536.136 919.845 C 522.389 904.939 509.414 887.681 495.756 872.221 C 495.517 887.976 495.674 904.122 495.685 919.899 L 471.213 919.901 L 470.953 830.407 z"/>
<path transform="translate(0,0)" fill="rgb(27,89,156)" d="M 1674.91 947.028 L 1707.6 946.851 C 1719.41 946.808 1730.85 946.136 1742.4 948.956 C 1773.01 956.426 1778.9 1001.88 1758.3 1021.99 C 1744.95 1035.01 1721.8 1032.84 1704.48 1032.57 C 1700.15 1033.22 1699.69 1032.51 1697.17 1034.94 C 1696.79 1036.65 1696.06 1040.48 1695.57 1041.97 L 1674.88 1041.14 C 1674.42 1036.9 1674.38 1036.61 1674.83 1032.4 C 1675.08 1023.98 1675.16 1015.55 1675.08 1007.12 C 1689.52 1007.25 1738.04 1010.71 1744.63 1000.86 C 1770.28 962.518 1685.47 972.669 1674.99 972.308 L 1674.91 947.028 z"/>
<path transform="translate(0,0)" fill="rgb(238,200,69)" d="M 1674.83 1032.4 C 1684.58 1032.4 1694.77 1032.25 1704.48 1032.57 C 1700.15 1033.22 1699.69 1032.51 1697.17 1034.94 C 1696.79 1036.65 1696.06 1040.48 1695.57 1041.97 L 1674.88 1041.14 C 1674.42 1036.9 1674.38 1036.61 1674.83 1032.4 z"/>
<path transform="translate(0,0)" fill="rgb(27,89,156)" d="M 1188.82 830.448 C 1196.87 830.342 1205.18 830.607 1213.25 830.758 L 1213.88 867.84 C 1223.69 856.299 1238.09 840.914 1249.05 830.557 C 1257.88 830.272 1266.79 830.695 1275.63 830.99 C 1263.77 844.069 1251.84 857.08 1239.83 870.022 C 1246.57 878.548 1253.25 887.119 1259.88 895.735 L 1278.59 919.834 L 1249.51 919.937 C 1241.3 910.689 1232.16 897.771 1223.86 887.688 C 1219.72 891.165 1217.28 893.977 1213.66 897.931 L 1213.25 919.906 L 1188.91 919.914 L 1188.82 830.448 z"/>
<path transform="translate(0,0)" fill="rgb(27,89,156)" d="M 1285.25 830.511 C 1308.19 830.403 1332.61 829.882 1355.42 830.708 C 1355.45 837.103 1355.6 843.641 1355.2 850.009 L 1309.99 850.062 C 1310.01 854.456 1309.82 861.058 1310.33 865.224 C 1323.68 865.004 1337.03 865.025 1350.38 865.287 C 1350.61 871.424 1350.42 877.741 1350.34 883.896 L 1310.04 883.93 L 1309.93 900.262 C 1325.32 900.802 1342.08 900.27 1357.83 900.56 L 1357.82 919.873 L 1285.25 919.937 C 1285.07 890.129 1285.08 860.319 1285.25 830.511 z"/>
<path transform="translate(0,0)" fill="rgb(27,89,156)" d="M 686.934 830.491 C 704.281 830.279 721.632 830.328 738.978 830.637 L 738.936 849.964 L 693.04 850.062 L 693.085 865.024 C 706.556 864.968 720.028 865.041 733.498 865.243 L 733.23 883.826 L 693.041 883.926 C 693.047 888.15 692.274 897.376 694.147 900.313 L 741.191 900.426 C 741.254 906.855 741.161 913.435 741.142 919.879 L 668.827 919.868 C 668.495 890.158 668.37 860.447 668.453 830.736 L 686.934 830.491 z"/>
<path transform="translate(0,0)" fill="rgb(27,89,156)" d="M 1736.4 1126.21 C 1779.06 1126.21 1774.13 1177.9 1759.82 1204.74 C 1752.23 1201.9 1746.89 1199.67 1739.59 1196.19 C 1746.35 1184.28 1755.4 1162.65 1745 1150.64 C 1732.35 1149.96 1732.02 1188.68 1714.41 1201.2 C 1697.11 1207.83 1682.27 1199.52 1676.39 1182.33 C 1670.12 1163.97 1673.28 1147.68 1681.45 1130.75 C 1687.89 1132.56 1694.99 1135.58 1701.29 1138.06 C 1697.61 1146.76 1686.13 1173.64 1701.63 1177.35 C 1716.15 1172.72 1707.58 1133.66 1736.4 1126.21 z"/>
<path transform="translate(0,0)" fill="rgb(27,89,156)" d="M 886.231 982.506 C 893.015 982.375 899.8 982.309 906.585 982.309 C 930.826 982.366 952.465 990.138 951.8 1018.77 C 951.542 1029.92 947.714 1036.02 939.786 1043.63 C 924.684 1054.03 900.544 1051.58 881.84 1051.59 C 881.754 1042.92 880.38 987.227 882.553 982.829 L 886.231 982.506 z"/>
<path transform="translate(0,0)" fill="rgb(246,199,42)" d="M 898.93 996.163 C 915.735 996.135 925.316 994.431 934.859 1010.06 C 935.5 1020.99 935.984 1024.39 929.047 1032.66 C 918.988 1039.25 910.8 1038.04 898.99 1037.92 C 898.693 1024.23 898.91 1009.91 898.93 996.163 z"/>
<path transform="translate(0,0)" fill="rgb(27,89,156)" d="M 669.965 980.522 C 690.272 977.255 709.343 991.185 712.407 1011.52 C 715.472 1031.86 701.353 1050.79 680.985 1053.66 C 660.901 1056.48 642.292 1042.6 639.27 1022.54 C 636.249 1002.49 649.942 983.744 669.965 980.522 z"/>
<path transform="translate(0,0)" fill="rgb(246,199,42)" d="M 669.466 996.663 C 680.6 993.291 692.379 999.487 695.909 1010.57 C 699.439 1021.66 693.412 1033.52 682.378 1037.21 C 675.1 1039.64 667.075 1037.97 661.377 1032.83 C 655.68 1027.68 653.192 1019.87 654.867 1012.38 C 656.543 1004.89 662.121 998.888 669.466 996.663 z"/>
<path transform="translate(0,0)" fill="rgb(27,89,156)" d="M 1080.04 982.205 C 1085.38 982.234 1090.9 982.489 1096.25 982.665 C 1089.82 1005.57 1081.14 1028.68 1074.05 1051.7 L 1056.08 1051.86 C 1051.2 1036.75 1046.46 1021.76 1040.86 1006.9 C 1035.75 1021.2 1031.22 1037.15 1026.41 1051.79 L 1008.49 1051.67 C 1000.28 1028.91 992.711 1005.92 985.791 982.738 L 1002.39 982.17 L 1010.43 1007.43 C 1012.82 1014.6 1015.24 1022.31 1017.96 1029.31 C 1020.16 1021.75 1022.28 1015.72 1025.02 1008.33 C 1027.81 999.837 1030.65 990.584 1033.66 982.236 L 1049.07 982.477 L 1057.4 1007.92 C 1061.64 1007.09 1067.47 1007.51 1072.07 1007.45 C 1074.78 999.056 1077.44 990.64 1080.04 982.205 z"/>
<path transform="translate(0,0)" fill="rgb(238,200,69)" d="M 1057.4 1007.92 C 1061.64 1007.09 1067.47 1007.51 1072.07 1007.45 L 1064.66 1029.95 C 1062.66 1024 1058.81 1013.68 1057.4 1007.92 z"/>
<path transform="translate(0,0)" fill="rgb(27,89,156)" d="M 307.507 829.197 C 329.119 827.899 337.887 831.893 354.106 845.502 C 348.54 850.267 343 855.065 337.489 859.894 C 327.991 851.73 315.851 845.428 303.582 852.215 C 297.528 855.574 293.133 861.287 291.441 868 C 289.6 875.095 290.67 883.786 294.911 889.722 C 307.242 906.984 323.851 901.319 337.481 890.759 L 339.746 891.75 C 344.61 895.996 349.423 900.3 354.185 904.662 C 328.46 929.601 283.435 928.287 268.684 891.754 C 256.389 861.305 275.912 835.415 307.507 829.197 z"/>
<path transform="translate(0,0)" fill="rgb(27,89,156)" d="M 1131.94 829.282 C 1152.74 827.882 1162.72 831.723 1178.04 845.52 C 1172.58 850.01 1166.79 855.315 1161.44 860.02 C 1151.16 850.455 1138.71 845.396 1125.82 853.937 C 1119.98 857.812 1115.97 863.894 1114.71 870.786 C 1111.26 889.974 1129.68 906.031 1147.77 899.019 C 1153.96 896.618 1155.29 895.772 1160.62 891.756 L 1162.15 890.592 L 1163.61 891.339 C 1168.86 895.771 1173.55 900.188 1178.55 904.89 C 1160.82 923.368 1131.57 927.428 1110.08 913.271 C 1100.13 906.733 1093.18 896.513 1090.76 884.854 C 1084.68 854.877 1103.51 834.486 1131.94 829.282 z"/>
<path transform="translate(0,0)" fill="rgb(27,89,156)" d="M 612.318 829.289 C 631.936 827.635 643.77 832.116 657.836 845.656 L 641.482 860.213 C 612.41 831.794 581.609 866.408 600.328 891.402 C 604.072 896.437 609.711 899.724 615.937 900.498 C 627.079 901.964 633.104 897.224 641.278 890.653 L 642.752 890.887 C 648.5 895.695 652.871 899.629 658.268 904.831 C 641.1 923.083 611.442 927.162 590.41 913.565 C 579.975 906.789 572.79 896.016 570.546 883.778 C 565.286 854.637 584.742 834.257 612.318 829.289 z"/>
<path transform="translate(0,0)" fill="rgb(27,89,156)" d="M 1674.88 1041.14 L 1695.57 1041.97 C 1696.02 1050.44 1695.85 1060.44 1695.93 1069.03 C 1720.12 1068.89 1744.31 1069.03 1768.5 1069.46 L 1768.58 1094.78 L 1695.94 1094.87 L 1695.72 1121.67 L 1675.04 1121.71 C 1674.78 1094.85 1674.73 1068 1674.88 1041.14 z"/>
<path transform="translate(0,0)" fill="rgb(27,89,156)" d="M 1363.89 830.078 C 1390.39 830.773 1417.63 829.729 1443.75 830.629 L 1443.84 850.694 L 1415.97 850.724 L 1415.92 919.835 L 1390.91 919.868 L 1390.78 850.914 C 1382.43 850.882 1372.27 850.566 1364.07 850.918 C 1363.57 846.594 1363.88 834.952 1363.89 830.078 z"/>
<path transform="translate(0,0)" fill="rgb(27,89,156)" d="M 840.461 830.44 C 867.276 830.291 894.091 830.296 920.906 830.456 L 920.919 850.796 L 893.058 850.897 L 893.148 892.5 L 893.02 919.876 L 868.342 919.906 L 868.029 850.936 L 840.767 850.777 L 840.461 830.44 z"/>
<path transform="translate(0,0)" fill="rgb(27,89,156)" d="M 961.015 830.5 C 984.826 830.313 1017.98 829.325 1041.04 830.852 L 1041.13 850.774 L 1013.32 850.912 L 1013.4 894.784 C 1013.56 903.141 1013.51 911.501 1013.23 919.855 L 988.625 919.833 L 988.287 850.952 L 961.028 850.801 L 961.015 830.5 z"/>
<path transform="translate(0,0)" fill="rgb(27,89,156)" d="M 802.575 982.498 C 806.888 982.482 811.588 982.362 815.862 982.499 L 837.503 1007.98 C 841.072 1007.72 845.085 1007.7 848.699 1007.6 C 848.689 999.6 848.438 990.683 849.358 982.818 L 866.622 982.817 C 866.868 1005.61 866.913 1028.4 866.758 1051.2 L 853.158 1051.9 C 841.279 1038.84 830.952 1024.52 819.009 1011.32 L 818.942 1051.77 L 802.777 1051.74 L 802.575 982.498 z"/>
<path transform="translate(0,0)" fill="rgb(238,200,69)" d="M 848.699 1007.6 C 848.689 999.6 848.438 990.683 849.358 982.818 C 850.606 991.613 849.999 1013.16 849.919 1022.93 L 837.503 1007.98 C 841.072 1007.72 845.085 1007.7 848.699 1007.6 z"/>
<path transform="translate(0,0)" fill="rgb(27,89,156)" d="M 392.703 981.975 C 397.287 981.261 400.039 980.319 404.277 982.065 C 409.857 982.301 415.442 982.386 421.026 982.32 L 421.18 1008.92 L 452.137 1009 L 451.977 982.384 L 468.661 982.632 C 468.886 1005.63 468.921 1028.63 468.766 1051.63 L 452.136 1051.63 L 451.99 1023.18 C 441.676 1023.14 431.361 1023.16 421.047 1023.24 L 421.006 1051.72 C 416.094 1051.89 408.489 1052.81 404.483 1050.76 L 403.567 1047.39 C 401.358 1035.23 405.221 1011.13 401.373 999.171 C 401.033 998.113 395.064 997.044 393.233 996.557 L 394.829 995.793 C 396.73 992.056 396.128 987.294 395.184 983.389 L 392.703 981.975 z"/>
<path transform="translate(0,0)" fill="rgb(238,200,69)" d="M 392.703 981.975 C 397.287 981.261 400.039 980.319 404.277 982.065 C 403.726 1002.24 404.904 1028.34 403.567 1047.39 C 401.358 1035.23 405.221 1011.13 401.373 999.171 C 401.033 998.113 395.064 997.044 393.233 996.557 L 394.829 995.793 C 396.73 992.056 396.128 987.294 395.184 983.389 L 392.703 981.975 z"/>
<path transform="translate(0,0)" fill="rgb(27,89,156)" d="M 1123.53 982.276 L 1140.17 982.203 C 1150.99 1005.28 1161.59 1028.46 1171.97 1051.74 L 1154.72 1051.84 C 1150.55 1043.13 1152.09 1037.69 1141.75 1037.21 L 1115.97 1037.38 C 1114.54 1041.6 1111.62 1047.69 1109.75 1051.91 L 1093.05 1051.58 C 1098.71 1035.62 1115.94 998.035 1123.53 982.276 z"/>
<path transform="translate(0,0)" fill="rgb(238,200,69)" d="M 1131.4 1000.66 C 1134.86 1003.95 1140.45 1018.45 1141.55 1023.4 C 1138.81 1024.78 1136.72 1024.34 1133.37 1024.4 L 1121.34 1024.38 L 1131.4 1000.66 z"/>
<path transform="translate(0,0)" fill="rgb(27,89,156)" d="M 486.491 982.524 C 503.164 982.102 519.845 982.09 536.518 982.488 L 536.251 996.031 L 500.239 996.045 L 500.271 1009.79 L 532.482 1009.96 L 532.214 1022.95 C 526.241 1022.9 503.681 1021.98 500.265 1024.31 L 500.149 1038.07 C 512.752 1038.02 525.354 1038.15 537.953 1038.48 L 537.855 1051.69 C 519.877 1051.76 501.898 1051.63 483.923 1051.28 C 483.872 1042.3 483.036 988.189 484.498 983.002 L 486.491 982.524 z"/>
<path transform="translate(0,0)" fill="rgb(27,89,156)" d="M 1248.08 982.605 C 1263.98 982.36 1285 981.624 1300.82 982.668 L 1300.7 995.933 L 1264.18 996.008 L 1264.28 1009.75 L 1296.92 1009.99 L 1296.77 1022.93 C 1286 1022.91 1274.75 1022.72 1264.02 1023 L 1264.01 1038.11 C 1276.25 1038.19 1290.12 1037.98 1302.23 1038.51 C 1302.3 1042.38 1302.99 1047.35 1300.99 1050.38 C 1298.46 1051.96 1296.51 1051.72 1293.5 1051.87 C 1281.66 1050.35 1262.11 1052.75 1249.15 1050.76 C 1247.52 1048.28 1247.83 1043.94 1247.74 1040.74 C 1248.06 1021.36 1248.17 1001.98 1248.08 982.605 z"/>
<path transform="translate(0,0)" fill="rgb(27,89,156)" d="M 724.082 982.409 L 740.986 982.328 C 740.971 991.965 738.35 1030.31 746.105 1034.84 C 779.26 1054.22 771.603 999.644 771.257 982.415 L 787.845 982.481 L 787.966 994.697 C 788.138 1008.84 790.84 1032.65 780.555 1043.44 C 768.405 1055.85 743.451 1055.55 731.531 1043.06 C 722.289 1033.38 724.069 1016.61 723.917 1004.19 C 723.829 997.022 724.014 989.617 724.082 982.409 z"/>
<path transform="translate(0,0)" fill="rgb(27,89,156)" d="M 1311.09 982.385 C 1330.13 981.989 1350.75 983.137 1369.45 982.289 C 1369.47 984.485 1369.59 990.676 1368.72 992.138 C 1359.93 1006.94 1343.63 1024.58 1332.36 1037.8 L 1370.94 1038.09 C 1371.01 1041.85 1371.56 1047.92 1370.17 1051.12 L 1369.37 1051.63 C 1352.75 1051 1328.58 1053.15 1311.86 1050.56 C 1310.3 1050.31 1310.41 1049.48 1309.59 1047.69 C 1311.26 1034.67 1337.83 1006.89 1347.7 996.273 L 1310.95 996.037 L 1311.09 982.385 z"/>
<path transform="translate(0,0)" fill="rgb(27,89,156)" d="M 605.068 1039.8 C 610.421 1038.56 616.079 1037.27 614.45 1030.38 C 605.013 1021.3 573.588 1023.28 574.619 1003.48 C 576.046 976.071 611.725 979.069 628.537 987.255 C 627.054 991.052 625.132 996.477 623.442 1000.03 C 613.91 995.852 598.898 989.929 591.583 1000.58 C 591.843 1009.25 611.269 1010.45 618.869 1014.24 C 633.068 1021.32 636.913 1032.48 625.903 1044.92 C 619.438 1052.04 598.863 1054.74 590.385 1051.14 C 583.641 1050.39 578.945 1047.68 573.091 1044.62 L 579.184 1032.3 C 590.585 1037.99 592.554 1038.43 605.068 1039.8 z"/>
<path transform="translate(0,0)" fill="rgb(38,80,113)" d="M 579.184 1032.3 C 590.585 1037.99 592.554 1038.43 605.068 1039.8 L 603.188 1040.04 C 596.549 1040.88 582.307 1040.19 577.412 1043.6 C 580.742 1047.5 585.915 1047.33 590.385 1051.14 C 583.641 1050.39 578.945 1047.68 573.091 1044.62 L 579.184 1032.3 z"/>
<path transform="translate(0,0)" fill="rgb(27,89,156)" d="M 1225.87 981.465 C 1231.5 982.636 1236.04 982.716 1241.74 983.019 C 1239.52 989.178 1237.18 995.289 1234.71 1001.35 C 1228.73 1010.57 1219.31 1038.63 1211.72 1051.84 L 1196.12 1051.89 C 1186.55 1030.6 1173.94 1004.12 1165.77 982.579 L 1183.76 982.459 C 1190.8 998.192 1197.95 1015.62 1204.47 1031.59 C 1211.12 1015.94 1220.23 996.884 1225.87 981.465 z"/>
<path transform="translate(0,0)" fill="rgb(27,89,156)" d="M 1051.37 830.465 C 1059.65 830.462 1067.94 830.555 1076.22 830.744 C 1076.06 842.63 1078.1 914.993 1074.77 919.877 L 1051.34 919.846 C 1051.02 890.048 1051.74 860.272 1051.37 830.465 z"/>
<path transform="translate(0,0)" fill="rgb(27,89,156)" d="M 392.703 981.975 L 395.184 983.389 C 396.128 987.294 396.73 992.056 394.829 995.793 L 393.233 996.557 C 388.151 996.082 379.246 996.316 373.855 996.307 C 373.886 1014.81 373.813 1033.32 373.634 1051.82 L 357.046 1051.78 C 356.741 1033.48 356.904 1014.71 356.85 996.371 L 335.028 996.113 L 335.05 982.355 C 353.504 982.348 374.445 982.817 392.703 981.975 z"/>
<path transform="translate(0,0)" fill="rgb(253,254,254)" d="M 1549.85 1012.61 C 1556.4 1009.91 1563.9 1013.03 1566.59 1019.59 C 1569.27 1026.14 1566.13 1033.63 1559.57 1036.3 C 1553.03 1038.96 1545.57 1035.83 1542.89 1029.3 C 1540.22 1022.77 1543.33 1015.3 1549.85 1012.61 z"/>
<path transform="translate(0,0)" fill="rgb(253,254,254)" d="M 1551.77 872.636 C 1558.56 870.987 1565.41 875.088 1567.16 881.846 C 1568.91 888.604 1564.92 895.518 1558.19 897.375 C 1553.74 898.602 1548.98 897.337 1545.73 894.066 C 1542.47 890.795 1541.24 886.025 1542.49 881.585 C 1543.74 877.146 1547.29 873.725 1551.77 872.636 z"/>
<path transform="translate(0,0)" fill="rgb(253,254,254)" d="M 1550.41 826.707 C 1557 824.158 1564.4 827.451 1566.92 834.051 C 1569.43 840.65 1566.1 848.037 1559.49 850.518 C 1552.92 852.982 1545.6 849.68 1543.1 843.128 C 1540.61 836.577 1543.87 829.239 1550.41 826.707 z"/>
</svg>